<?xml version="1.0" encoding="utf-8"?>
<!-- Generator: Adobe Illustrator 24.3.0, SVG Export Plug-In . SVG Version: 6.00 Build 0)  -->
<svg version="1.2" baseProfile="tiny" id="Layer_1" xmlns="http://www.w3.org/2000/svg" xmlns:xlink="http://www.w3.org/1999/xlink"
	 x="0px" y="0px" viewBox="0 0 500 500" overflow="visible" xml:space="preserve">
<path fill="#27B26D" d="M252.5,242.6h-2.1c-55.7,0-100.8-45.1-100.8-100.8l0,0c0-55.7,45.1-100.8,100.8-100.8h2.1
	c55.7,0,100.8,45.1,100.8,100.8l0,0C353.4,197.5,308.2,242.6,252.5,242.6z"/>
<path fill="#2A75BA" d="M430.5,318c-10-53.2-35.8-92.8-86.4-92.8h-5c-21.7,23.2-53.1,37.7-87.9,37.7s-66.2-14.4-87.9-37.7h-5.1
	c-50.6,0-78.5,40.9-87.6,94.1c-2.6,15.1-4.1,59.3-4.1,59.3c0,36,29.2,65.2,65.2,65.2h238.8c36,0,65.2-29.2,65.2-65.2
	C435.9,378.5,434.2,337.9,430.5,318z"/>
</svg>
