<?xml version="1.0" encoding="utf-8"?>
<!-- Generator: Adobe Illustrator 26.3.1, SVG Export Plug-In . SVG Version: 6.00 Build 0)  -->
<svg version="1.1" id="Layer_1" xmlns="http://www.w3.org/2000/svg" xmlns:xlink="http://www.w3.org/1999/xlink" x="0px" y="0px"
	 viewBox="0 0 500 500" style="enable-background:new 0 0 500 500;" xml:space="preserve">
<style type="text/css">
	.st0{fill:#00E19B;}
	.st1{fill:none;stroke:#0B75CE;stroke-width:6;stroke-miterlimit:10;}
	.st2{fill:#FFB600;}
	.st3{fill:#0B75CE;}
	.st4{fill:#FE007A;}
	.st5{fill:#0376CF;}
	.st6{fill:none;stroke:#FE0079;stroke-width:6;stroke-miterlimit:10;}
	.st7{fill:none;stroke:#FFB600;stroke-width:6;stroke-miterlimit:10;}
	.st8{fill:none;stroke:#00E19B;stroke-width:6;stroke-miterlimit:10;}
</style>
<g>
	<circle class="st0" cx="81.8" cy="87.9" r="12.7"/>
	<circle class="st1" cx="81.8" cy="87.9" r="27.2"/>
	<line class="st1" x1="100.6" y1="107.6" x2="123.4" y2="130.5"/>
</g>
<g>
	<circle class="st2" cx="418.2" cy="419.3" r="12.7"/>
	<circle class="st1" cx="418.2" cy="419.3" r="27.2"/>
	<line class="st1" x1="399.4" y1="399.6" x2="376.6" y2="376.8"/>
</g>
<path class="st3" d="M427.1,284.8v-60.1l-35.6-6.6c-3.3-12.8-8.3-24.9-14.8-36.1l21.2-29.7l-41.7-43.2l-31.4,20.8
	c-12-7-25.2-12.4-39.1-15.7l-7-38h-60.1l-7.4,40.2c-12.5,3.7-24.2,9.1-35,15.9l-35.1-23.2l-41.7,43.2l25.6,35.8
	c-4.6,9-8.3,18.5-11,28.4l-43.8,8.1v60.1l44.3,8.2c2.7,9.6,6.4,18.8,11,27.5l-26.1,36.6l41.7,43.2l36.5-24.2
	c10.3,6.3,21.4,11.4,33.2,14.9l7.8,42.1h60.1l7.4-39.9c13.2-3.2,25.8-8.2,37.3-14.7l32.8,21.7l41.7-43.2l-21.8-30.5
	c6.4-10.9,11.4-22.7,14.8-35.2L427.1,284.8z M249.3,344.2c-49.4,0-89.5-40.1-89.5-89.5s40.1-89.5,89.5-89.5s89.5,40.1,89.5,89.5
	S298.7,344.2,249.3,344.2z"/>
<path class="st0" d="M201,274.7l42.4-25.2c3.3-1.9,7.3-1.9,10.6,0l42.4,25.2c2.6,1.5,2.6,5.3,0,6.8L254,307c-3.3,2-7.4,2-10.7,0
	l-42.4-25.5C198.4,280,198.4,276.2,201,274.7z"/>
<path class="st4" d="M201,256.9l42.4-25.2c3.3-1.9,7.3-1.9,10.6,0l42.4,25.2c2.6,1.5,2.6,5.3,0,6.8L254,289.3c-3.3,2-7.4,2-10.7,0
	l-42.4-25.5C198.4,262.2,198.4,258.5,201,256.9z"/>
<path class="st2" d="M201,239.2l42.4-25.2c3.3-1.9,7.3-1.9,10.6,0l42.4,25.2c2.6,1.5,2.6,5.3,0,6.8L254,271.5c-3.3,2-7.4,2-10.7,0
	L200.9,246C198.4,244.4,198.4,240.7,201,239.2z"/>
<path class="st5" d="M201,221l42.4-25.2c3.3-1.9,7.3-1.9,10.6,0l42.4,25.2c2.6,1.5,2.6,5.3,0,6.8L254,253.4c-3.3,2-7.4,2-10.7,0
	l-42.4-25.5C198.4,226.3,198.4,222.6,201,221z"/>
<g>
	<circle class="st3" cx="422" cy="91.9" r="12.7"/>
	<circle class="st1" cx="422" cy="91.9" r="27.2"/>
	<line class="st1" x1="403.2" y1="111.6" x2="380.4" y2="134.4"/>
</g>
<g>
	<circle class="st4" cx="77.3" cy="419.3" r="12.7"/>
	<circle class="st1" cx="77.3" cy="419.3" r="27.2"/>
	<line class="st1" x1="96.1" y1="399.6" x2="118.9" y2="376.8"/>
</g>
<g>
	<circle class="st1" cx="197.4" cy="47.4" r="13.3"/>
	<circle class="st1" cx="300" cy="47.4" r="13.3"/>
	<path class="st1" d="M209.9,42.8c13.1-3.2,26.8-4.9,41-4.9c12.7,0,25.1,1.4,37,4"/>
</g>
<g>
	<circle class="st6" cx="197.4" cy="454" r="13.3"/>
	<circle class="st6" cx="300" cy="454" r="13.3"/>
	<path class="st6" d="M287.9,459.5c-11.9,2.6-24.3,4-37,4c-14.1,0-27.8-1.7-41-4.9"/>
</g>
<g>
	<circle class="st7" cx="458.7" cy="302.7" r="13.3"/>
	<circle class="st7" cx="458.7" cy="200.2" r="13.3"/>
	<path class="st7" d="M464.2,212.3c2.6,11.9,4,24.3,4,37c0,14.1-1.7,27.8-4.9,41"/>
</g>
<g>
	<circle class="st8" cx="41.3" cy="299.4" r="13.3"/>
	<circle class="st8" cx="41.3" cy="196.8" r="13.3"/>
	<path class="st8" d="M36.7,286.8c-3.2-13.1-4.9-26.8-4.9-41c0-12.7,1.4-25.1,4-37"/>
</g>
</svg>
