<?xml version="1.0" encoding="utf-8"?>
<!-- Generator: Adobe Illustrator 26.3.1, SVG Export Plug-In . SVG Version: 6.00 Build 0)  -->
<svg version="1.1" id="Layer_1" xmlns="http://www.w3.org/2000/svg" xmlns:xlink="http://www.w3.org/1999/xlink" x="0px" y="0px"
	 viewBox="0 0 1000 1000" style="enable-background:new 0 0 1000 1000;" xml:space="preserve">
<style type="text/css">
	.st0{fill:#00E19B;}
	.st1{fill:none;stroke:#0B75CE;stroke-width:3;stroke-miterlimit:10;}
	.st2{fill:#FFB600;}
	.st3{fill:#0B75CE;}
	.st4{fill:#FE007A;}
	.st5{fill:#0376CF;}
	.st6{fill:none;stroke:#FE0079;stroke-width:3;stroke-miterlimit:10;}
	.st7{fill:none;stroke:#FFB600;stroke-width:3;stroke-miterlimit:10;}
	.st8{fill:none;stroke:#00E19B;stroke-width:3;stroke-miterlimit:10;}
</style>
<g>
	<circle class="st0" cx="394.93" cy="419.01" r="7.91"/>
	<circle class="st1" cx="394.93" cy="419.01" r="16.98"/>
	<line class="st1" x1="406.63" y1="431.3" x2="420.9" y2="445.57"/>
</g>
<g>
	<circle class="st2" cx="605.07" cy="626.05" r="7.91"/>
	<circle class="st1" cx="605.07" cy="626.05" r="16.98"/>
	<line class="st1" x1="593.37" y1="613.75" x2="579.1" y2="599.49"/>
</g>
<path class="st3" d="M610.68,542v-37.53l-22.26-4.12c-2.05-8-5.18-15.56-9.22-22.54l13.22-18.53l-26.07-27l-19.59,12.97
	c-7.51-4.39-15.72-7.72-24.42-9.78l-4.4-23.74h-37.53l-4.65,25.11c-7.78,2.34-15.11,5.71-21.85,9.95l-21.91-14.51l-26.07,27
	l15.97,22.38c-2.89,5.6-5.2,11.54-6.86,17.74l-27.37,5.07V542l27.69,5.13c1.7,6.02,4.02,11.77,6.88,17.2l-16.31,22.86l26.07,27
	l22.79-15.09c6.43,3.94,13.39,7.1,20.75,9.33l4.87,26.3h37.53l4.61-24.92c8.27-1.98,16.09-5.11,23.29-9.2l20.5,13.57l26.07-27
	l-13.59-19.04c4.01-6.8,7.15-14.17,9.26-21.97L610.68,542z M499.56,579.09c-30.88,0-55.91-25.03-55.91-55.91
	s25.03-55.91,55.91-55.91s55.91,25.03,55.91,55.91S530.44,579.09,499.56,579.09z"/>
<path class="st0" d="M469.37,535.69l26.49-15.72c2.05-1.21,4.59-1.21,6.64,0l26.49,15.72c1.61,0.96,1.62,3.29,0.01,4.25
	l-26.47,15.95c-2.06,1.24-4.65,1.24-6.71,0l-26.47-15.95C467.75,538.98,467.75,536.65,469.37,535.69z"/>
<path class="st4" d="M469.37,524.59l26.49-15.72c2.05-1.21,4.59-1.21,6.64,0l26.49,15.72c1.61,0.96,1.62,3.29,0.01,4.25
	l-26.47,15.95c-2.06,1.24-4.65,1.24-6.71,0l-26.47-15.95C467.75,527.88,467.75,525.55,469.37,524.59z"/>
<path class="st2" d="M469.37,513.49l26.49-15.72c2.05-1.21,4.59-1.21,6.64,0l26.49,15.72c1.61,0.96,1.62,3.29,0.01,4.25
	l-26.47,15.95c-2.06,1.24-4.65,1.24-6.71,0l-26.47-15.95C467.75,516.78,467.75,514.45,469.37,513.49z"/>
<path class="st5" d="M469.37,502.16l26.49-15.72c2.05-1.21,4.59-1.21,6.64,0l26.49,15.72c1.61,0.96,1.62,3.29,0.01,4.25
	l-26.47,15.95c-2.06,1.24-4.65,1.24-6.71,0l-26.47-15.95C467.75,505.45,467.75,503.12,469.37,502.16z"/>
<g>
	<circle class="st3" cx="607.44" cy="421.5" r="7.91"/>
	<circle class="st1" cx="607.44" cy="421.5" r="16.98"/>
	<line class="st1" x1="595.74" y1="433.79" x2="581.47" y2="448.06"/>
</g>
<g>
	<circle class="st4" cx="392.11" cy="626.05" r="7.91"/>
	<circle class="st1" cx="392.11" cy="626.05" r="16.98"/>
	<line class="st1" x1="403.82" y1="613.75" x2="418.08" y2="599.49"/>
</g>
<g>
	<circle class="st1" cx="467.13" cy="393.7" r="8.33"/>
	<circle class="st1" cx="531.22" cy="393.7" r="8.33"/>
	<path class="st1" d="M474.96,390.81c8.2-2.01,16.77-3.07,25.59-3.07c7.93,0,15.66,0.86,23.1,2.49"/>
</g>
<g>
	<circle class="st6" cx="467.13" cy="647.7" r="8.33"/>
	<circle class="st6" cx="531.22" cy="647.7" r="8.33"/>
	<path class="st6" d="M523.65,651.17c-7.44,1.63-15.17,2.49-23.1,2.49c-8.82,0-17.39-1.06-25.59-3.07"/>
</g>
<g>
	<circle class="st7" cx="630.38" cy="553.22" r="8.33"/>
	<circle class="st7" cx="630.38" cy="489.14" r="8.33"/>
	<path class="st7" d="M633.85,496.71c1.63,7.44,2.49,15.17,2.49,23.1c0,8.82-1.06,17.39-3.07,25.59"/>
</g>
<g>
	<circle class="st8" cx="369.62" cy="551.1" r="8.33"/>
	<circle class="st8" cx="369.62" cy="487.02" r="8.33"/>
	<path class="st8" d="M366.73,543.28c-2.01-8.2-3.07-16.77-3.07-25.59c0-7.93,0.86-15.66,2.49-23.1"/>
</g>
</svg>
