<?xml version="1.0" encoding="utf-8"?>
<!-- Generator: Adobe Illustrator 24.3.0, SVG Export Plug-In . SVG Version: 6.00 Build 0)  -->
<svg version="1.2" baseProfile="tiny" id="Layer_1" xmlns="http://www.w3.org/2000/svg" xmlns:xlink="http://www.w3.org/1999/xlink"
	 x="0px" y="0px" viewBox="0 0 500 500" overflow="visible" xml:space="preserve">
<g>
	<path fill="#0B75CE" d="M315.4,434.6H166.5l0.7-9.1c2.3-31.4,3-117.1-21-136.9c-9.2-7.6-6.4-23.1-2.6-44.6
		c3-16.7,6.7-37.4,2.3-49.1l0,0c-9.7-26.1,6.1-65.1,36.6-90.7c19.9-16.7,74.9-50.6,155.2-3.8c11.9,6.9,60.1,49.2,62,115.8
		c0.8,28.2,13.2,47.1,22.3,60.9c6.9,10.5,12.3,18.7,9.8,27.5c-1.4,5-5.2,9.1-11.4,12l-1.5,0.7l-19.1,1l0.4,37.4
		c0.1,9.5-3.5,18.4-10.2,25.2c-6.7,6.8-15.6,10.5-25.1,10.5h-28.4l-0.9,23.8C335.1,426.1,326.3,434.6,315.4,434.6z M184.7,417.5
		h130.7c1.7,0,3-1.3,3.1-3l1.5-40.2h44.8c4.9,0,9.5-1.9,13-5.4c3.5-3.5,5.3-8.1,5.3-13l-0.6-53.7l31.8-1.7c0.9-0.5,1.1-0.8,1.1-0.9
		c-0.2-1.6-4.6-8.3-7.8-13.2c-9.6-14.6-24.1-36.8-25-69.8c-1.6-59.1-45-96.6-53.5-101.6c-71-41.3-118.5-12.3-135.6,2.1
		c-27.4,23-37.7,55.2-31.6,71.8l0,0c6,16.1,2,38.4-1.5,58c-1.8,10.2-4.5,25.5-2.8,29C187.6,300.7,186.2,387.5,184.7,417.5z"/>
</g>
<g>
	<g>
		<g>
			<path fill="#1374CD" d="M266.9,184.9c-0.6,0-1.3-0.2-1.8-0.6c-1.4-1-1.7-3-0.7-4.3l10.1-14l-1.7-76.7c0-1.7,1.3-3.1,3-3.2
				c0,0,0,0,0.1,0c1.7,0,3.1,1.4,3.1,3l1.7,77.7c0,0.7-0.2,1.3-0.6,1.9l-10.7,14.8C268.8,184.5,267.9,184.9,266.9,184.9z"/>
		</g>
		<g>
			<path fill="#1374CD" d="M275.9,429.8c-1.7,0-3.1-1.3-3.1-3l-1.7-64.8c0-1.7,1.3-3.1,3-3.2c0,0,0.1,0,0.1,0c1.7,0,3.1,1.3,3.1,3
				l1.7,64.8C279.1,428.3,277.7,429.7,275.9,429.8C276,429.8,276,429.8,275.9,429.8z"/>
		</g>
		<g>
			<path fill="#1374CD" d="M248.7,428.7c-1.7,0-3.1-1.4-3.1-3.1l-0.6-32.4l-10.2-9.2c-1.3-1.1-1.4-3.1-0.2-4.4
				c1.1-1.3,3.1-1.4,4.4-0.2l11.2,10.1c0.6,0.6,1,1.4,1,2.3l0.6,33.8C251.8,427.2,250.4,428.6,248.7,428.7
				C248.7,428.7,248.7,428.7,248.7,428.7z"/>
		</g>
		<g>
			<path fill="#1374CD" d="M330.2,194.7c-1,0-2-0.5-2.6-1.4l-9.4-13.9c-0.4-0.5-0.5-1.1-0.5-1.8l0.8-75.3c0-1.7,1.4-3.1,3.1-3.1
				c0,0,0,0,0,0c1.7,0,3.1,1.4,3.1,3.1l-0.8,74.3l8.9,13.1c1,1.4,0.6,3.4-0.8,4.3C331.4,194.5,330.8,194.7,330.2,194.7z"/>
		</g>
		<g>
			<g>
				<path fill="#04B56D" d="M152.8,164.5c14.7,3.3,27.8,11,37.6,21.7l17-9.8l15.5,27l-17,9.8c2.2,6.9,3.3,14.2,3.3,21.8
					c0,7.6-1.2,14.9-3.3,21.7l17,9.8l-15.5,27l-17-9.8c-9.8,10.7-22.9,18.5-37.6,21.8V325h-31.2v-19.6
					c-14.7-3.2-27.8-11.1-37.6-21.8l-17,9.8l-15.5-27l16.9-9.8c-2.2-6.8-3.3-14.2-3.3-21.7c0-7.6,1.2-14.9,3.3-21.8l-16.9-9.8
					l15.5-27l17,9.8c9.8-10.7,22.9-18.5,37.6-21.7v-19.6h31.2V164.5z"/>
			</g>
			<g>
				<path d="M152.8,328.1h-31.2c-1.7,0-3.1-1.4-3.1-3.1v-17.1c-13.3-3.4-25.3-10.4-35-20.3l-14.9,8.6c-0.7,0.4-1.6,0.5-2.4,0.3
					c-0.8-0.2-1.5-0.7-1.9-1.5l-15.5-27c-0.9-1.5-0.3-3.4,1.1-4.2l14.8-8.6c-1.8-6.5-2.8-13.3-2.8-20.2c0-6.9,0.9-13.7,2.8-20.3
					l-14.8-8.6c-1.5-0.9-2-2.8-1.1-4.2l15.5-27c0.9-1.5,2.7-2,4.2-1.1l14.9,8.6c9.7-9.9,21.7-16.8,35.1-20.3v-17.2
					c0-1.7,1.4-3.1,3.1-3.1h31.2c1.7,0,3.1,1.4,3.1,3.1V162c13.3,3.4,25.4,10.4,35,20.3l14.9-8.6c1.5-0.9,3.4-0.3,4.2,1.1l15.5,27
					c0.9,1.5,0.3,3.4-1.1,4.2l-14.8,8.6c1.8,6.6,2.8,13.4,2.8,20.3c0,6.9-0.9,13.7-2.8,20.2l14.8,8.6c1.5,0.9,2,2.8,1.1,4.2
					l-15.5,27c-0.4,0.7-1.1,1.2-1.9,1.5c-0.8,0.2-1.6,0.1-2.4-0.3l-14.9-8.6c-9.7,9.9-21.7,16.9-35,20.3V325
					C155.9,326.7,154.5,328.1,152.8,328.1z M124.7,321.9h25v-16.5c0-1.5,1-2.7,2.4-3c13.8-3,26.3-10.2,36-20.8
					c1-1.1,2.6-1.3,3.8-0.6l14.3,8.3l12.4-21.6l-14.3-8.3c-1.3-0.7-1.8-2.2-1.4-3.6c2.1-6.7,3.2-13.6,3.2-20.8
					c0-7.1-1.1-14.1-3.2-20.8c-0.4-1.4,0.1-2.9,1.4-3.6l14.3-8.2l-12.4-21.6l-14.3,8.2c-1.3,0.7-2.9,0.5-3.8-0.6
					c-9.7-10.5-22.1-17.7-36-20.8c-1.4-0.3-2.4-1.6-2.4-3v-16.5h-25v16.5c0,1.5-1,2.7-2.4,3c-13.9,3.1-26.3,10.2-36,20.8
					c-1,1.1-2.6,1.3-3.8,0.6l-14.3-8.2l-12.4,21.6l14.3,8.2c1.3,0.7,1.9,2.2,1.4,3.6c-2.1,6.7-3.2,13.7-3.2,20.8
					c0,7.1,1.1,14.1,3.2,20.8c0.4,1.4-0.1,2.9-1.4,3.6l-14.3,8.3l12.4,21.6l14.3-8.3c1.3-0.7,2.9-0.5,3.9,0.6
					c9.7,10.6,22.2,17.8,36,20.8c1.4,0.3,2.4,1.6,2.4,3V321.9z"/>
			</g>
		</g>
		<g>
			<g>
				<path fill="#FFF8D1" d="M137.2,188.8c25.5,0,46.1,20.7,46.1,46.2c0,25.4-20.6,46.1-46.1,46.1c-25.5,0-46.1-20.6-46.1-46.1
					C91.1,209.4,111.7,188.8,137.2,188.8z"/>
			</g>
			<g>
				<path d="M137.2,284.1c-27.1,0-49.2-22.1-49.2-49.2c0-27.2,22.1-49.3,49.2-49.3c27.1,0,49.2,22.1,49.2,49.3
					C186.4,262.1,164.3,284.1,137.2,284.1z M137.2,191.9c-23.7,0-43,19.3-43,43c0,23.7,19.3,43,43,43c23.7,0,43-19.3,43-43
					C180.2,211.2,160.9,191.9,137.2,191.9z"/>
			</g>
		</g>
		<circle fill="#FFFFFF" cx="137.2" cy="234.9" r="25"/>
		<g>
			<path d="M137.2,263.5c-15.8,0-28.6-12.8-28.6-28.6c0-15.8,12.8-28.6,28.6-28.6c15.8,0,28.6,12.8,28.6,28.6
				C165.8,250.7,153,263.5,137.2,263.5z M137.2,212.5c-12.3,0-22.4,10-22.4,22.4c0,12.3,10,22.4,22.4,22.4c12.3,0,22.4-10,22.4-22.4
				C159.6,222.6,149.5,212.5,137.2,212.5z"/>
		</g>
		<g>
			<g>
				<path fill="#FACA44" d="M258.9,179.5c8.4,0,15.2,6.8,15.2,15.2c0,8.4-6.8,15.2-15.2,15.2c-8.4,0-15.2-6.8-15.2-15.2
					C243.7,186.3,250.5,179.5,258.9,179.5z"/>
			</g>
			<g>
				<path fill="#1374CD" d="M258.9,213c-10.1,0-18.3-8.2-18.3-18.3c0-10.1,8.2-18.3,18.3-18.3c10.1,0,18.3,8.2,18.3,18.3
					C277.2,204.8,269,213,258.9,213z M258.9,182.6c-6.7,0-12.1,5.4-12.1,12.1c0,6.7,5.4,12.1,12.1,12.1c6.6,0,12.1-5.4,12.1-12.1
					C271,188,265.5,182.6,258.9,182.6z"/>
			</g>
		</g>
		<g>
			<g>
				<path fill="#04B56D" d="M338.6,189c8.4,0,15.2,6.8,15.2,15.2c0,8.4-6.8,15.2-15.2,15.2c-8.4,0-15.2-6.8-15.2-15.2
					C323.5,195.9,330.3,189,338.6,189z"/>
			</g>
			<g>
				<path fill="#1374CD" d="M338.6,222.6c-10.1,0-18.3-8.2-18.3-18.3c0-10.1,8.2-18.3,18.3-18.3c10.1,0,18.3,8.2,18.3,18.3
					C357,214.4,348.7,222.6,338.6,222.6z M338.6,192.1c-6.6,0-12.1,5.4-12.1,12.1c0,6.7,5.4,12.1,12.1,12.1
					c6.7,0,12.1-5.4,12.1-12.1C350.7,197.6,345.3,192.1,338.6,192.1z"/>
			</g>
		</g>
		<g>
			<g>
				<path fill="#FACA44" d="M274.3,333.1c8.4,0,15.2,6.8,15.2,15.2c0,8.4-6.8,15.2-15.2,15.2c-8.4,0-15.2-6.8-15.2-15.2
					C259.1,339.9,265.9,333.1,274.3,333.1z"/>
			</g>
			<g>
				<path fill="#1374CD" d="M274.3,366.6c-10.1,0-18.3-8.2-18.3-18.3c0-10.1,8.2-18.3,18.3-18.3c10.1,0,18.3,8.2,18.3,18.3
					C292.6,358.4,284.4,366.6,274.3,366.6z M274.3,336.2c-6.7,0-12.1,5.4-12.1,12.1c0,6.6,5.4,12,12.1,12c6.6,0,12-5.4,12-12
					C286.4,341.6,281,336.2,274.3,336.2z"/>
			</g>
		</g>
		<g>
			<g>
				<path fill="#04B56D" d="M227,355.6c8.4,0,15.2,6.8,15.2,15.2c0,8.4-6.8,15.2-15.2,15.2c-8.4,0-15.2-6.8-15.2-15.2
					C211.9,362.3,218.6,355.6,227,355.6z"/>
			</g>
			<g>
				<path fill="#1374CD" d="M227,389.1c-10.1,0-18.3-8.2-18.3-18.3c0-10.1,8.2-18.3,18.3-18.3c10.1,0,18.3,8.2,18.3,18.3
					C245.3,380.8,237.1,389.1,227,389.1z M227,358.7c-6.6,0-12,5.4-12,12.1c0,6.7,5.4,12.1,12,12.1c6.7,0,12.1-5.4,12.1-12.1
					C239.1,364.1,233.7,358.7,227,358.7z"/>
			</g>
		</g>
	</g>
</g>
</svg>
