<?xml version="1.0" encoding="utf-8"?>
<!-- Generator: Adobe Illustrator 24.1.1, SVG Export Plug-In . SVG Version: 6.00 Build 0)  -->
<svg version="1.1" id="Layer_1" xmlns="http://www.w3.org/2000/svg" xmlns:xlink="http://www.w3.org/1999/xlink" x="0px" y="0px"
	 viewBox="0 0 435.89 435.89" style="enable-background:new 0 0 435.89 435.89;" xml:space="preserve">
<style type="text/css">
	.st0{display:none;}
	.st1{display:inline;fill:#232323;}
	.st2{display:inline;}
	.st3{fill:none;}
	.st4{fill:#232323;}
	.st5{display:inline;fill:#0376CF;}
	.st6{fill:#0376CF;}
	.st7{fill:#FFFFFF;}
	.st8{display:inline;fill:#FFFFFF;}
</style>
<g class="st0">
	<path class="st1" d="M366.01,68.71h-296c-20.28,0-36.72,16.44-36.72,36.72V329.6c0,20.28,16.44,36.72,36.72,36.72h296
		c20.28,0,36.72-16.44,36.72-36.72V105.43C402.73,85.15,386.29,68.71,366.01,68.71z M374.59,339.37H59.47V93.7h315.12V339.37z"/>
	<circle class="st1" cx="119.74" cy="155.93" r="36.69"/>
	<polygon class="st1" points="83.05,312.51 83.05,276.48 143.33,216.53 173.46,247.65 272.39,148.07 349.04,227.34 349.04,312.51 	
		"/>
</g>
<g class="st0">
	<g class="st2">
		<polygon class="st3" points="272.07,56.7 269.06,56.7 269.06,139.1 349.57,139.1 349.57,134.2 		"/>
		<polygon class="st3" points="243.49,56.7 81.52,56.7 81.52,377.78 349.57,377.78 349.57,164.67 243.49,164.67 		"/>
		<path class="st4" d="M368.44,117.91l-79.13-79.13c-5.37-5.37-12.66-8.39-20.26-8.39h0h-25.57H86.5
			c-15.82,0-28.65,12.83-28.65,28.65v317.33c0,15.82,12.83,28.65,28.65,28.65h261.69c15.82,0,28.65-12.83,28.65-28.65v-211.7V139.1
			v-0.92C376.83,130.57,373.82,123.29,368.44,117.91z M343.54,377.78H87.55c-3.33,0-6.03-2.7-6.03-6.03V62.72
			c0-3.33,2.7-6.03,6.03-6.03h149.9c3.33,0,6.03,2.7,6.03,6.03v86.32c0,8.63,7,15.63,15.63,15.63h84.42c3.33,0,6.03,2.7,6.03,6.03
			v201.05C349.57,375.08,346.87,377.78,343.54,377.78z M275.09,139.1c-3.33,0-6.03-2.7-6.03-6.03V56.7h3.01l75.73,75.73
			c1.13,1.13,1.77,2.66,1.77,4.26v2.4H275.09z"/>
	</g>
	<rect x="139.54" y="190.01" class="st1" width="154.15" height="27.23"/>
	<rect x="139.54" y="241.07" class="st1" width="154.15" height="27.23"/>
	<rect x="139.54" y="292.14" class="st1" width="154.15" height="27.23"/>
</g>
<g class="st0">
	<g class="st2">
		<g>
			<rect x="137.74" y="137.53" class="st4" width="158.84" height="26.36"/>
		</g>
		<g>
			<rect x="137.74" y="202.75" class="st4" width="158.84" height="26.36"/>
		</g>
		<g>
			<rect x="137.74" y="267.98" class="st4" width="106.12" height="26.36"/>
		</g>
		<g>
			<g>
				<path class="st4" d="M85.69,137.53v-26.7c0-14.37,11.65-26.02,26.02-26.02h26.02V59.17h-34.16c-24.44,0-44.25,19.81-44.25,44.25
					v34.11H85.69z"/>
				<path class="st4" d="M296.58,84.81h26.7c14.37,0,26.02,11.65,26.02,26.02v26.7h27.02v-34.11c0-24.44-19.81-44.25-44.25-44.25
					h-35.49V84.81z"/>
				<path class="st4" d="M349.3,294.34v28.05c0,14.37-11.65,26.02-26.02,26.02h-26.7v27.66h35.49c24.44,0,44.25-19.81,44.25-44.25
					v-37.49H349.3z"/>
				<path class="st4" d="M137.74,348.41h-26.02c-14.37,0-26.02-11.65-26.02-26.02v-28.05H59.33v37.49
					c0,24.44,19.81,44.25,44.25,44.25h34.16V348.41z"/>
			</g>
		</g>
	</g>
</g>
<g class="st0">
	<path class="st5" d="M205.82,117.99l-2.79-2.79c-13.11-13.11-30.89-20.48-49.43-20.48c-38.61,0-69.91,31.3-69.91,69.91v46.4
		c0-9.64,7.81-17.45,17.45-17.45h5.82v-11.63l23.26-11.63c15.29,7.65,32.16,11.63,49.27,11.63h32.15v11.63h5.82
		c9.64,0,17.45,7.81,17.45,17.45v-57.58C234.89,136.22,222.72,121.37,205.82,117.99z"/>
	<g class="st2">
		<path d="M357.02,117.99c0-32.07-26.09-58.15-58.15-58.15s-58.15,26.09-58.15,58.15s26.09,58.15,58.15,58.15
			S357.02,150.06,357.02,117.99z M266.63,151.46c5.28-12.97,18.03-21.84,32.23-21.84c14.19,0,26.95,8.87,32.23,21.85
			c-8.37,8.05-19.72,13.04-32.23,13.04C286.35,164.51,275,159.52,266.63,151.46z M287.23,106.36c0-6.41,5.22-11.63,11.63-11.63
			c6.41,0,11.63,5.22,11.63,11.63c0,6.41-5.22,11.63-11.63,11.63C292.45,117.99,287.23,112.77,287.23,106.36z M298.86,71.47
			c25.65,0,46.52,20.87,46.52,46.52c0,8.53-2.34,16.5-6.37,23.38c-5.2-8.95-13.22-15.88-22.71-19.78c3.58-4.09,5.82-9.37,5.82-15.22
			c0-12.83-10.43-23.26-23.26-23.26c-12.83,0-23.26,10.43-23.26,23.26c0,5.85,2.24,11.14,5.82,15.22
			c-9.49,3.9-17.52,10.83-22.71,19.78c-4.02-6.88-6.37-14.85-6.37-23.38C252.34,92.34,273.21,71.47,298.86,71.47z"/>
		<path d="M176.74,240.11h-11.63c0,3.2-2.61,5.82-5.82,5.82c-3.2,0-5.82-2.61-5.82-5.82h-11.63c0,9.62,7.83,17.45,17.45,17.45
			C168.91,257.56,176.74,249.73,176.74,240.11z"/>
		<circle cx="136.03" cy="205.22" r="5.82"/>
		<circle cx="182.55" cy="205.22" r="5.82"/>
		<path d="M380.28,201.87V36.57H217.45v85.93c4.75,2.88,8.66,6.86,11.63,11.48V48.21h139.57v151.2h-48.52
			c-7.76,0-15.07,3.02-20.56,8.51l-14.75,14.75h-47.35c2-3.44,3.23-7.37,3.23-11.63c0-12.83-10.43-23.26-23.26-23.26v-11.63h-37.96
			c-16.12,0-32.26-3.81-46.67-11.02l-2.6-1.3l-29.08,14.54v9.41c-12.83,0-23.26,10.43-23.26,23.26c0,12.83,10.43,23.26,23.26,23.26
			h6.42c5.95,14.18,15.81,26.44,28.47,35.36v7.05l-56.18,19.83c-25.53,9-42.68,33.25-42.68,60.32v40.27h244.25v-40.27
			c0-0.15-0.02-0.29-0.02-0.44h87.25c16.03,0,29.08-13.04,29.08-29.08v-98.86C397.72,216.59,390.53,206.37,380.28,201.87
			L380.28,201.87z M289.64,234.3l18.16-18.16c3.24-3.24,7.74-5.11,12.33-5.11h48.52c9.62,0,17.45,7.83,17.45,17.45v17.45H205
			c2.31-3.7,4.33-7.59,6.03-11.63h6.42H289.64z M229.08,211.04c0,6.41-5.22,11.63-11.63,11.63h-2.55
			c1.66-6.52,2.55-13.32,2.55-20.28v-2.98C223.86,199.4,229.08,204.62,229.08,211.04z M101.14,222.67
			c-6.41,0-11.63-5.22-11.63-11.63c0-6.41,5.22-11.63,11.63-11.63v2.98c0,6.96,0.9,13.75,2.55,20.28H101.14z M112.77,202.39v-16.84
			l17.49-8.75c15.34,7.19,32.29,10.97,49.23,10.97h26.33v14.61c0,29.84-18.62,56.3-46.52,66.46
			C131.39,258.69,112.77,232.23,112.77,202.39z M179.65,288.01l7.8,2.75l-3.74,41.13l-17.33-17.33L179.65,288.01z M157.46,280.52
			l1.84,0.61l1.84-0.61c3.39-1.13,6.64-2.52,9.79-4.04v2.97l-11.63,23.26l-11.63-23.26v-2.97
			C150.82,278.01,154.07,279.39,157.46,280.52z M138.94,288.01l13.28,26.55l-17.33,17.33l-3.74-41.13L138.94,288.01z M269.79,385.5
			h-34.89v-24.26c0-9.05,3.52-17.57,9.93-23.97l-8.22-8.22c-8.6,8.6-13.33,20.03-13.33,32.19v24.26H95.32v-24.26
			c0-12.16-4.73-23.59-13.33-32.19l-8.22,8.22c6.4,6.4,9.93,14.91,9.93,23.97v24.26H48.8v-28.64c0-22.15,14.03-41.99,34.92-49.36
			l36.11-12.74l5.72,62.92l33.74-33.75l33.75,33.75l5.72-62.92l36.11,12.74c20.88,7.37,34.92,27.21,34.92,49.36V385.5z
			 M368.65,344.79h-88.43c-4.25-21.99-19.82-40.61-41.48-48.26l-56.18-19.83v-7.05c5.01-3.54,9.57-7.59,13.64-12.1h189.9v69.78
			C386.09,336.96,378.27,344.79,368.65,344.79z"/>
		<path d="M362.83,222.67h11.63v11.63h-11.63V222.67z"/>
		<path d="M316.31,222.67h11.63v11.63h-11.63V222.67z"/>
		<path d="M339.57,222.67h11.63v11.63h-11.63V222.67z"/>
	</g>
	<g class="st2">
		<path class="st6" d="M362.83,333.16h-34.89c-6.41,0-11.63-5.22-11.63-11.63V309.9c0-6.41,5.22-11.63,11.63-11.63h34.89
			c6.41,0,11.63,5.22,11.63,11.63v11.63C374.46,327.94,369.25,333.16,362.83,333.16z"/>
	</g>
</g>
<g class="st0">
	<path class="st5" d="M234.38,133.95h107.16v77.39H234.38V133.95z"/>
	<path class="st5" d="M115.32,229.2v71.44h83.34v-23.81h23.81V229.2H115.32z"/>
	<g class="st2">
		<path d="M246.29,330.41h11.91v23.81h11.91v-23.81h11.91V318.5h-35.72V330.41z"/>
		<path d="M341.54,330.41h11.91v23.81h11.91v-23.81h11.91V318.5h-35.72V330.41z"/>
		<path d="M325.42,314.29l-13.65,13.65l-13.65-13.65l-8.42,8.42l13.65,13.65l-13.65,13.65l8.42,8.42l13.65-13.65l13.65,13.65
			l8.42-8.42l-13.65-13.65l13.65-13.65L325.42,314.29z"/>
		<path d="M377.26,258.97h-11.91V32.75H166.43l-74.93,74.93v151.29H34.25l20.84,41.67l-20.84,41.67h57.26v59.53h273.85v-23.81h11.91
			c13.13,0,23.81-10.68,23.81-23.81v-71.44C401.07,269.65,390.39,258.97,377.26,258.97z M162.94,53.07v51.11h-51.11L162.94,53.07z
			 M53.51,330.41l14.88-29.77l-14.88-29.77h37.99v59.53H53.51z M353.45,389.94H103.41V116.09h71.44V44.66h178.6v250.03h-11.91
			v-71.44H234.38v71.44h-9.14l-27.78,41.67l27.78,41.67h128.2V389.94z M329.63,294.69h-83.34v-59.53h83.34V294.69z M389.17,354.22
			c0,6.57-5.34,11.91-11.91,11.91H231.61l-19.84-29.77l19.84-29.77h145.64c4.33,0,8.4-1.16,11.91-3.2V354.22z M377.26,294.69h-11.91
			v-23.81h11.91c6.57,0,11.91,5.34,11.91,11.91S383.83,294.69,377.26,294.69z"/>
		<path d="M341.54,56.56H186.76v59.53h154.78V56.56z M329.63,104.19H198.66V68.47h130.97V104.19z"/>
		<path d="M222.48,128H115.32v83.34h107.16V128z M210.57,199.44h-83.34v-59.53h83.34V199.44z"/>
		<path d="M234.38,128h107.16v11.91H234.38V128z"/>
		<path d="M234.38,151.81h23.81v11.91h-23.81V151.81z"/>
		<path d="M270.1,151.81h71.44v11.91H270.1V151.81z"/>
		<path d="M234.38,175.63h107.16v11.91H234.38V175.63z"/>
		<path d="M234.38,199.44h83.34v11.91h-83.34V199.44z"/>
		<path d="M329.63,199.44h11.91v11.91h-11.91V199.44z"/>
		<path d="M115.32,223.25h107.16v11.91H115.32V223.25z"/>
		<path d="M115.32,247.06h71.44v11.91h-71.44V247.06z"/>
		<path d="M198.66,247.06h23.81v11.91h-23.81V247.06z"/>
		<path d="M115.32,270.88h107.16v11.91H115.32V270.88z"/>
		<path d="M115.32,294.69h83.34v11.91h-83.34V294.69z"/>
		<path d="M145.08,318.5c-16.41,0-29.77,13.35-29.77,29.77s13.35,29.77,29.77,29.77s29.77-13.35,29.77-29.77
			S161.5,318.5,145.08,318.5z M145.08,366.13c-9.85,0-17.86-8.01-17.86-17.86s8.01-17.86,17.86-17.86s17.86,8.01,17.86,17.86
			S154.93,366.13,145.08,366.13z"/>
	</g>
</g>
<g class="st0">
	<circle class="st1" cx="217.57" cy="217.17" r="185.16"/>
	<g class="st2">
		<g>
			<path class="st7" d="M286.67,222.3c15.76-8.62,25.64-25.31,25.09-43.27c-1.83-60-41.04-81.43-85.39-85.21
				c-41.9-3.57-78.69,20.37-94.3,55.75c-1.3,2.94-0.55,6.38,1.95,8.4l31.82,25.69c2.71,2.19,6.62,2.04,9.16-0.34l29.1-27.31
				c7.81-7.33,19.98-7.29,27.74,0.09l0.27,0.26c9.4,8.95,7.98,24.23-2.78,31.48c-18.7,12.59-42.68,32.73-42.68,53.66
				c0,24.33,0,24.33,0,24.33h56.57C253.28,247.51,268.33,232.33,286.67,222.3z"/>
		</g>
	</g>
	<path class="st8" d="M243.55,341.42h-55.8c-0.61,0-1.1-0.49-1.1-1.1v-55.8c0-0.61,0.49-1.1,1.1-1.1h55.8c0.61,0,1.1,0.49,1.1,1.1
		v55.8C244.65,340.93,244.16,341.42,243.55,341.42z"/>
</g>
<g class="st0">
	<circle class="st1" cx="218.2" cy="121.77" r="89.76"/>
	<g class="st2">
		<path class="st4" d="M301.3,196.53h-4.94c-17.89,23.62-46.24,38.89-78.15,38.89c-31.92,0-60.26-15.27-78.15-38.89h-5.31
			c-47.81,0-86.57,38.76-86.57,86.57v49.26c0,38.29,31.04,69.33,69.33,69.33h201.03c38.29,0,69.33-31.04,69.33-69.33V283.1
			C387.87,235.29,349.11,196.53,301.3,196.53z"/>
	</g>
</g>
<g class="st0">
	<path class="st1" d="M380.7,144.97v-30.52c0-20.26-16.43-36.69-36.69-36.69h-30.97V44.61c0-8.03-6.51-14.55-14.55-14.55h-18.81
		c-8.03,0-14.55,6.51-14.55,14.55v33.14h-94.39V44.61c0-8.03-6.51-14.55-14.55-14.55h-18.81c-8.03,0-14.55,6.51-14.55,14.55v33.14
		H91.05c-20.26,0-36.69,16.43-36.69,36.69v30.52H380.7z"/>
	<path class="st1" d="M54.36,172.14v193.83c0,20.26,16.43,36.69,36.69,36.69h252.95c20.26,0,36.69-16.43,36.69-36.69V172.14H54.36z
		 M334.49,269.39c0,11.85-9.6,21.45-21.45,21.45H120.68c-11.85,0-21.45-9.6-21.45-21.45v-30.75c0-11.85,9.6-21.45,21.45-21.45
		h192.35c11.85,0,21.45,9.6,21.45,21.45V269.39z"/>
</g>
<g class="st0">
	<rect x="310.58" y="100.07" class="st1" width="46.08" height="212.33"/>
	<rect x="240.84" y="171.68" class="st1" width="46.08" height="140.73"/>
	<rect x="171.1" y="125.6" class="st1" width="46.08" height="186.8"/>
	<rect x="101.36" y="219" class="st1" width="46.08" height="93.4"/>
	<polygon class="st1" points="55.28,334.67 55.28,77.57 32.71,77.57 32.71,334.67 32.71,357.24 55.28,357.24 402.73,357.24 
		402.73,334.67 	"/>
</g>
<g class="st0">
	<path class="st1" d="M286.58,234.6v-36.2c0-4.94-4-8.94-8.94-8.94h-30.31c-1.93-5.69-4.39-11.14-7.33-16.28l18.55-16.7
		c3.67-3.3,3.96-8.96,0.66-12.62l-24.22-26.9c-3.3-3.67-8.96-3.97-12.62-0.66l-21.69,19.53c-5.45-2.75-11.2-4.98-17.19-6.64v-27.98
		c0-4.94-4-8.94-8.94-8.94h-36.2c-4.94,0-8.94,4-8.94,8.94v29.19c-5.12,1.66-10.04,3.75-14.73,6.23L92.1,116.28
		c-3.67-3.3-9.32-3.01-12.62,0.66l-24.22,26.9c-3.3,3.67-3.01,9.32,0.66,12.62l20.16,18.16c-2.58,4.71-4.74,9.67-6.5,14.83H40.93
		c-4.94,0-8.94,4-8.94,8.94v36.2c0,4.94,4,8.94,8.94,8.94h26.75c1.72,6.54,4.14,12.79,7.15,18.69l-18.92,17.03
		c-3.67,3.3-3.97,8.96-0.66,12.62l24.22,26.9c3.3,3.67,8.96,3.96,12.62,0.66l20.15-18.14c5.41,3.07,11.15,5.61,17.16,7.57v23.15
		c0,4.94,4,8.94,8.94,8.94h36.2c4.94,0,8.94-4,8.94-8.94v-21.95c6.36-1.75,12.44-4.16,18.18-7.14l20.71,18.64
		c3.67,3.3,9.32,3.01,12.62-0.66l24.22-26.9c3.3-3.67,3.01-9.32-0.66-12.62l-18.03-16.23c3.75-6.74,6.7-13.99,8.7-21.63h28.41
		C282.58,243.54,286.58,239.54,286.58,234.6z M107.92,226.25c-4.2-33.33,23.83-61.36,57.16-57.16c22.71,2.86,41.05,21.2,43.91,43.91
		c4.2,33.33-23.83,61.36-57.16,57.16C129.12,267.3,110.78,248.96,107.92,226.25z"/>
	<path class="st1" d="M402.73,126.48v-19.45c0-2.65-2.15-4.8-4.8-4.8h-16.28c-1.04-3.06-2.36-5.98-3.94-8.75l9.97-8.97
		c1.97-1.77,2.13-4.81,0.36-6.78l-13.01-14.45c-1.77-1.97-4.81-2.13-6.78-0.36l-11.65,10.49c-2.93-1.48-6.02-2.68-9.24-3.57V54.81
		c0-2.65-2.15-4.8-4.8-4.8H323.1c-2.65,0-4.8,2.15-4.8,4.8v15.68c-2.75,0.89-5.39,2.02-7.91,3.35l-12.13-10.92
		c-1.97-1.77-5.01-1.62-6.78,0.36l-13.01,14.45c-1.77,1.97-1.62,5.01,0.36,6.78l10.83,9.75c-1.39,2.53-2.55,5.2-3.49,7.97h-15.39
		c-2.65,0-4.8,2.15-4.8,4.8v19.45c0,2.65,2.15,4.8,4.8,4.8h14.37c0.92,3.51,2.22,6.87,3.84,10.04l-10.16,9.15
		c-1.97,1.77-2.13,4.81-0.36,6.78l13.01,14.45c1.77,1.97,4.81,2.13,6.78,0.36l10.82-9.74c2.91,1.65,5.99,3.02,9.22,4.07v12.44
		c0,2.65,2.15,4.8,4.8,4.8h19.45c2.65,0,4.8-2.15,4.8-4.8v-11.79c3.41-0.94,6.68-2.23,9.76-3.84l11.12,10.02
		c1.97,1.77,5.01,1.62,6.78-0.36l13.01-14.45c1.77-1.97,1.62-5.01-0.36-6.78l-9.68-8.72c2.01-3.62,3.6-7.52,4.68-11.62h15.26
		C400.58,131.29,402.73,129.14,402.73,126.48z M306.76,122c-2.26-17.9,12.8-32.96,30.71-30.71c12.2,1.54,22.05,11.39,23.59,23.59
		c2.26,17.9-12.8,32.96-30.7,30.7C318.15,144.05,308.3,134.2,306.76,122z"/>
	<path class="st1" d="M402.73,327.61v-19.45c0-2.65-2.15-4.8-4.8-4.8h-16.28c-1.04-3.06-2.36-5.98-3.94-8.75l9.97-8.97
		c1.97-1.77,2.13-4.81,0.36-6.78l-13.01-14.45c-1.77-1.97-4.81-2.13-6.78-0.36l-11.65,10.49c-2.93-1.48-6.02-2.68-9.24-3.57v-15.03
		c0-2.65-2.15-4.8-4.8-4.8H323.1c-2.65,0-4.8,2.15-4.8,4.8v15.68c-2.75,0.89-5.39,2.02-7.91,3.35l-12.13-10.92
		c-1.97-1.77-5.01-1.62-6.78,0.36l-13.01,14.45c-1.77,1.97-1.62,5.01,0.36,6.78l10.83,9.75c-1.39,2.53-2.55,5.2-3.49,7.97h-15.39
		c-2.65,0-4.8,2.15-4.8,4.8v19.45c0,2.65,2.15,4.8,4.8,4.8h14.37c0.92,3.51,2.22,6.87,3.84,10.04l-10.16,9.15
		c-1.97,1.77-2.13,4.81-0.36,6.78l13.01,14.45c1.77,1.97,4.81,2.13,6.78,0.36l10.82-9.74c2.91,1.65,5.99,3.02,9.22,4.07v12.44
		c0,2.65,2.15,4.8,4.8,4.8h19.45c2.65,0,4.8-2.15,4.8-4.8v-11.79c3.41-0.94,6.68-2.23,9.76-3.84l11.12,10.02
		c1.97,1.77,5.01,1.62,6.78-0.36l13.01-14.45c1.77-1.97,1.62-5.01-0.36-6.78l-9.68-8.72c2.01-3.62,3.6-7.52,4.68-11.62h15.26
		C400.58,332.41,402.73,330.26,402.73,327.61z M306.76,323.13c-2.26-17.9,12.8-32.96,30.71-30.71c12.2,1.54,22.05,11.39,23.59,23.59
		c2.26,17.9-12.8,32.96-30.7,30.7C318.15,345.18,308.3,335.33,306.76,323.13z"/>
</g>
<g class="st0">
	<circle class="st1" cx="217.4" cy="217.13" r="60.32"/>
	<g class="st2">
		<path class="st4" d="M217.4,339.64c-67.55,0-122.51-54.96-122.51-122.51S149.85,94.62,217.4,94.62s122.51,54.96,122.51,122.51
			S284.96,339.64,217.4,339.64z M217.4,124.69c-50.97,0-92.44,41.47-92.44,92.44c0,50.97,41.47,92.44,92.44,92.44
			s92.44-41.47,92.44-92.44C309.85,166.15,268.38,124.69,217.4,124.69z"/>
	</g>
	<g class="st2">
		<path class="st4" d="M217.4,402.15c-102.02,0-185.02-83-185.02-185.02c0-102.02,83-185.02,185.02-185.02s185.02,83,185.02,185.02
			C402.42,319.15,319.42,402.15,217.4,402.15z M217.4,62.17c-85.44,0-154.95,69.51-154.95,154.95s69.51,154.95,154.95,154.95
			s154.95-69.51,154.95-154.95S302.85,62.17,217.4,62.17z"/>
	</g>
</g>
<g class="st0">
	<path class="st1" d="M396.07,157.19l-9.24-9.24c-7.65-7.65-20.06-7.65-27.71,0l-2.31,2.31l-69.86-69.86l2.31-2.31
		c7.65-7.65,7.65-20.06,0-27.71l-9.24-9.24c-7.65-7.65-20.06-7.65-27.71,0l-75.63,75.63c-7.65,7.65-7.65,20.06,0,27.71l9.24,9.24
		c7.65,7.65,20.06,7.65,27.71,0l2.31-2.31l24.82,24.82l-49.07,49.07l-7.22-7.22c-5.9-5.9-15.46-5.9-21.36,0l-80.25,80.25
		c-5.9,5.9-5.9,15.46,0,21.36l35.22,35.22c5.9,5.9,15.46,5.9,21.36,0l80.25-80.25c5.9-5.9,5.9-15.46,0-21.36l-6.64-6.64l49.07-49.07
		l23.67,23.67l-2.31,2.31c-7.65,7.65-7.65,20.06,0,27.71l9.24,9.24c7.65,7.65,20.06,7.65,27.71,0l75.63-75.63
		C403.73,177.25,403.73,164.85,396.07,157.19z"/>
</g>
<g class="st0">
	<rect x="51.86" y="97" class="st1" width="224.82" height="162.37"/>
	<rect x="33.74" y="73.04" class="st1" width="41.86" height="41.86"/>
	<rect x="259.39" y="73.04" class="st1" width="41.86" height="41.86"/>
	<rect x="33.74" y="238.44" class="st1" width="41.86" height="41.86"/>
	<rect x="259.39" y="238.44" class="st1" width="41.86" height="41.86"/>
	<rect x="360.36" y="155.74" class="st1" width="41.86" height="41.86"/>
	<rect x="360.36" y="321.14" class="st1" width="41.86" height="41.86"/>
	<rect x="133.35" y="321.14" class="st1" width="41.86" height="41.86"/>
	<polygon class="st1" points="294.17,178.18 294.17,223.98 314.57,223.98 314.57,298.09 240.46,298.09 240.46,274.98 154.28,274.98 
		154.28,340.56 379.1,340.56 379.1,178.18 	"/>
</g>
<g class="st0">
	<g class="st2">
		<g>
			<path class="st6" d="M382.94,160.64c-5.8,5.09-12.97,9.87-21.35,14.25c-33,17.23-84.49,28.32-142.38,28.32
				s-109.38-11.09-142.38-28.32c-8.39-4.38-15.55-9.16-21.35-14.25h-3.61v31.86v54.69c11.21,11.31,29.14,21.23,51.82,28.93
				c31.29,10.62,71.56,17.01,115.52,17.01c43.96,0,84.23-6.4,115.52-17.01c20.98-7.12,37.89-16.14,49.19-26.41v-59.73v-29.34H382.94
				z"/>
		</g>
	</g>
	<g class="st2">
		<g>
			<path class="st6" d="M382.94,277.58c-5.8,5.09-12.97,9.87-21.35,14.25c-33,17.23-84.49,28.32-142.38,28.32
				s-109.38-11.09-142.38-28.32c-8.39-4.38-15.55-9.16-21.35-14.25h-3.61v31.86v54.69c11.21,11.31,29.14,21.23,51.82,28.93
				c31.29,10.62,71.56,17.01,115.52,17.01c43.96,0,84.23-6.4,115.52-17.01c20.98-7.12,37.89-16.14,49.19-26.41v-59.73v-29.34H382.94
				z"/>
		</g>
	</g>
	<path class="st5" d="M383.92,69.74c-28.14-25.58-91.28-43.42-164.71-43.42c-75.82,0-140.66,19.01-167.34,45.94v54.68
		c26.68,26.92,91.52,45.94,167.34,45.94c73.43,0,136.57-17.84,164.71-43.42V69.74z"/>
</g>
<g class="st0">
	<path class="st1" d="M394.84,135.86h0.03l-0.16-0.22c-1.99-3.48-4.35-6.7-7.02-9.65l-41.67-57.22c-2.53-3.47-6.56-5.52-10.86-5.52
		H95.09c-4.57,0-8.83,2.33-11.3,6.17l-35.3,54.96c-10.01,10.21-16.08,24.28-15.73,39.79c0.67,29.1,24.3,52.86,53.39,53.69
		c17.84,0.51,33.82-7.49,44.22-20.22c10.09,12.35,25.43,20.24,42.61,20.24c17.66,0,33.33-8.35,43.4-21.29
		c10.07,12.93,25.74,21.29,43.4,21.29c17.77,0,33.53-8.46,43.59-21.54c10.5,13.65,27.22,22.28,45.95,21.49
		c28.08-1.18,50.95-23.71,52.55-51.76C402.51,155.05,399.84,144.7,394.84,135.86z"/>
	<path class="st1" d="M330.26,234.54v58.64H101.94v-58.64H63.62v117.86c0,11.11,9.01,20.12,20.12,20.12h265.48
		c11.11,0,20.12-9.01,20.12-20.12V234.54H330.26z"/>
</g>
<g class="st0">
	<path class="st2" d="M403.43,31.94h-372v300h69.52L89.89,343c-6.75,6.74-10.46,15.71-10.46,25.24c0,19.68,16.02,35.7,35.7,35.7
		c9.54,0,18.5-3.71,25.24-10.46l61.54-61.54h201.52V31.94z M391.43,43.94v36h-348v-36H391.43z M131.89,385
		c-4.48,4.48-10.43,6.94-16.76,6.94c-13.07,0-23.7-10.63-23.7-23.7c0-6.33,2.46-12.28,6.94-16.76l59.06-59.06l33.52,33.52
		L131.89,385z M208.95,307.94l-9.52,9.52l-33.52-33.52l9.52-9.52L208.95,307.94z M213.91,319.94l12-12l-12-12l19.76-19.76
		l-8.48-8.48l-19.76,19.76l-9.52-9.52l19.76-19.76l-8.48-8.48l-19.76,19.76l-12-12l-62.48,62.48H43.43v-228h348v228H213.91z"/>
	<path class="st2" d="M283.43,241.94v-12c4.05,0,7.98-0.79,11.68-2.36l4.68,11.05C294.59,240.82,289.09,241.94,283.43,241.94
		L283.43,241.94z"/>
	<path class="st2" d="M311.72,230.98l-8.09-8.87c6.23-5.67,9.8-13.75,9.8-22.17c0-16.54-13.46-30-30-30s-30,13.46-30,30h-12
		c0-23.16,18.85-42,42-42s42,18.84,42,42C325.43,211.73,320.43,223.04,311.72,230.98L311.72,230.98z"/>
	<rect x="55.43" y="55.94" class="st2" width="12" height="12"/>
	<rect x="79.43" y="55.94" class="st2" width="12" height="12"/>
	<rect x="103.43" y="55.94" class="st2" width="12" height="12"/>
	<path class="st5" d="M283.43,295.94c-52.93,0-96-43.07-96-96s43.07-96,96-96s96,43.07,96,96S336.36,295.94,283.43,295.94
		L283.43,295.94z M283.43,133.94c-36.39,0-66,29.6-66,66s29.61,66,66,66s66-29.61,66-66S319.82,133.94,283.43,133.94L283.43,133.94z
		"/>
	<path class="st2" d="M283.43,271.94c-39.7,0-72-32.3-72-72s32.3-72,72-72s72,32.3,72,72S323.13,271.94,283.43,271.94L283.43,271.94
		z M283.43,139.94c-33.09,0-60,26.91-60,60s26.91,60,60,60s60-26.91,60-60S316.52,139.94,283.43,139.94L283.43,139.94z"/>
	<rect x="73.43" y="133.94" class="st5" width="84" height="24"/>
	<rect x="73.43" y="181.94" class="st5" width="84" height="24"/>
	<path class="st2" d="M175.43,139.94h-120v-36h120V139.94z M67.43,127.94h96v-12h-96V127.94z"/>
	<path class="st2" d="M175.43,187.94h-120v-36h120V187.94z M67.43,175.94h96v-12h-96V175.94z"/>
	<path class="st2" d="M175.43,235.94h-120v-36h120V235.94z M67.43,223.94h96v-12h-96V223.94z"/>
</g>
<g class="st0">
	<g class="st2">
		<g>
			<rect x="137.69" y="137.42" class="st4" width="158.84" height="26.36"/>
		</g>
		<g>
			<rect x="137.69" y="202.64" class="st4" width="158.84" height="26.36"/>
		</g>
		<g>
			<rect x="137.69" y="267.87" class="st4" width="106.12" height="26.36"/>
		</g>
		<g>
			<g>
				<path class="st4" d="M85.64,137.42v-26.7c0-14.37,11.65-26.02,26.02-26.02h26.02V59.06h-34.16c-24.44,0-44.25,19.81-44.25,44.25
					v34.11H85.64z"/>
				<path class="st4" d="M296.53,84.7h26.7c14.37,0,26.02,11.65,26.02,26.02v26.7h27.02v-34.11c0-24.44-19.81-44.25-44.25-44.25
					h-35.49V84.7z"/>
				<path class="st4" d="M349.25,294.23v28.05c0,14.37-11.65,26.02-26.02,26.02h-26.7v27.66h35.49c24.44,0,44.25-19.81,44.25-44.25
					v-37.49h-27.02V294.23z"/>
				<path class="st4" d="M137.69,348.3h-26.02c-14.37,0-26.02-11.65-26.02-26.02v-28.05H59.28v37.49
					c0,24.44,19.81,44.25,44.25,44.25h34.16V348.3z"/>
			</g>
		</g>
	</g>
</g>
<g class="st0">
	<path class="st5" d="M234.01,134.06h107.16v77.39H234.01V134.06z"/>
	<path class="st5" d="M114.95,229.31v71.44h83.34v-23.81h23.81v-47.63H114.95z"/>
	<g class="st2">
		<path d="M245.92,330.52h11.91v23.81h11.91v-23.81h11.91v-11.91h-35.72L245.92,330.52L245.92,330.52z"/>
		<path d="M341.17,330.52h11.91v23.81h11.91v-23.81h11.91v-11.91h-35.72v11.91H341.17z"/>
		<path d="M325.05,314.4l-13.65,13.65l-13.65-13.65l-8.42,8.42l13.65,13.65l-13.65,13.65l8.42,8.42l13.65-13.65l13.65,13.65
			l8.42-8.42l-13.65-13.65l13.65-13.65L325.05,314.4z"/>
		<path d="M376.89,259.08h-11.91V32.86H166.06l-74.93,74.93v151.29H33.88l20.84,41.67l-20.84,41.67h57.26v59.53h273.85v-23.81h11.91
			c13.13,0,23.81-10.68,23.81-23.81v-71.44C400.7,269.76,390.02,259.08,376.89,259.08z M162.57,53.18v51.11h-51.11L162.57,53.18z
			 M53.14,330.52l14.88-29.77l-14.88-29.77h37.99v59.53L53.14,330.52L53.14,330.52z M353.08,390.05H103.04V116.2h71.44V44.77h178.6
			V294.8h-11.91v-71.44H234.01v71.44h-9.14l-27.78,41.67l27.78,41.67h128.2v11.91H353.08z M329.26,294.8h-83.34v-59.53h83.34V294.8z
			 M388.8,354.33c0,6.57-5.34,11.91-11.91,11.91H231.24l-19.84-29.77l19.84-29.77h145.64c4.33,0,8.4-1.16,11.91-3.2v50.83H388.8z
			 M376.89,294.8h-11.91v-23.81h11.91c6.57,0,11.91,5.34,11.91,11.91S383.46,294.8,376.89,294.8z"/>
		<path d="M341.17,56.67H186.39v59.53h154.78L341.17,56.67L341.17,56.67z M329.26,104.3H198.29V68.58h130.97V104.3z"/>
		<path d="M222.11,128.11H114.95v83.34h107.16L222.11,128.11L222.11,128.11z M210.2,199.55h-83.34v-59.53h83.34V199.55z"/>
		<path d="M234.01,128.11h107.16v11.91H234.01V128.11z"/>
		<path d="M234.01,151.92h23.81v11.91h-23.81V151.92z"/>
		<path d="M269.73,151.92h71.44v11.91h-71.44V151.92z"/>
		<path d="M234.01,175.74h107.16v11.91H234.01V175.74z"/>
		<path d="M234.01,199.55h83.34v11.91h-83.34V199.55z"/>
		<path d="M329.26,199.55h11.91v11.91h-11.91V199.55z"/>
		<path d="M114.95,223.36h107.16v11.91H114.95V223.36z"/>
		<path d="M114.95,247.17h71.44v11.91h-71.44C114.95,259.08,114.95,247.17,114.95,247.17z"/>
		<path d="M198.29,247.17h23.81v11.91h-23.81V247.17z"/>
		<path d="M114.95,270.99h107.16v11.91H114.95V270.99z"/>
		<path d="M114.95,294.8h83.34v11.91h-83.34C114.95,306.71,114.95,294.8,114.95,294.8z"/>
		<path d="M144.71,318.61c-16.41,0-29.77,13.35-29.77,29.77s13.35,29.77,29.77,29.77s29.77-13.35,29.77-29.77
			S161.13,318.61,144.71,318.61z M144.71,366.24c-9.85,0-17.86-8.01-17.86-17.86s8.01-17.86,17.86-17.86s17.86,8.01,17.86,17.86
			S154.56,366.24,144.71,366.24z"/>
	</g>
</g>
<g class="st0">
	<rect x="276.88" y="75.57" class="st5" width="106.52" height="23.67"/>
	<rect x="276.88" y="134.75" class="st5" width="106.52" height="23.67"/>
	<rect x="52.01" y="276.77" class="st5" width="106.52" height="23.67"/>
	<rect x="52.01" y="335.95" class="st5" width="106.52" height="23.67"/>
	<rect x="164.44" y="140.67" class="st5" width="35.51" height="11.84"/>
	<rect x="235.46" y="282.69" class="st5" width="35.51" height="11.84"/>
	<rect x="353.81" y="211.68" class="st2" width="11.84" height="11.84"/>
	<rect x="353.81" y="235.35" class="st2" width="11.84" height="11.84"/>
	<rect x="353.81" y="259.02" class="st2" width="11.84" height="11.84"/>
	<rect x="353.81" y="282.69" class="st2" width="11.84" height="11.84"/>
	<rect x="353.81" y="306.36" class="st2" width="11.84" height="11.84"/>
	<rect x="353.81" y="330.03" class="st2" width="11.84" height="11.84"/>
	<rect x="353.81" y="353.7" class="st2" width="11.84" height="11.84"/>
	<rect x="306.47" y="377.37" class="st2" width="11.84" height="11.84"/>
	<rect x="282.8" y="377.37" class="st2" width="11.84" height="11.84"/>
	<rect x="259.13" y="377.37" class="st2" width="11.84" height="11.84"/>
	<rect x="235.46" y="377.37" class="st2" width="11.84" height="11.84"/>
	<rect x="211.78" y="377.37" class="st2" width="11.84" height="11.84"/>
	<rect x="188.11" y="377.37" class="st2" width="11.84" height="11.84"/>
	<rect x="330.14" y="377.37" class="st2" width="11.84" height="11.84"/>
	<rect x="353.81" y="377.37" class="st2" width="11.84" height="11.84"/>
	<rect x="69.76" y="211.68" class="st2" width="11.84" height="11.84"/>
	<rect x="69.76" y="188.01" class="st2" width="11.84" height="11.84"/>
	<rect x="69.76" y="164.34" class="st2" width="11.84" height="11.84"/>
	<rect x="69.76" y="140.67" class="st2" width="11.84" height="11.84"/>
	<rect x="69.76" y="117" class="st2" width="11.84" height="11.84"/>
	<rect x="69.76" y="93.33" class="st2" width="11.84" height="11.84"/>
	<rect x="69.76" y="69.65" class="st2" width="11.84" height="11.84"/>
	<rect x="117.1" y="45.98" class="st2" width="11.84" height="11.84"/>
	<rect x="140.77" y="45.98" class="st2" width="11.84" height="11.84"/>
	<rect x="164.44" y="45.98" class="st2" width="11.84" height="11.84"/>
	<rect x="188.11" y="45.98" class="st2" width="11.84" height="11.84"/>
	<rect x="211.78" y="45.98" class="st2" width="11.84" height="11.84"/>
	<rect x="235.46" y="45.98" class="st2" width="11.84" height="11.84"/>
	<rect x="93.43" y="45.98" class="st2" width="11.84" height="11.84"/>
	<rect x="69.76" y="45.98" class="st2" width="11.84" height="11.84"/>
	<path class="st2" d="M383.4,34.15H276.88c-9.79,0-17.75,7.96-17.75,17.75v11.84c0,9.79,7.96,17.75,17.75,17.75H383.4
		c9.79,0,17.75-7.96,17.75-17.75V51.9C401.15,42.11,393.19,34.15,383.4,34.15L383.4,34.15z M389.31,63.74
		c0,3.25-2.65,5.92-5.92,5.92H276.88c-3.26,0-5.92-2.66-5.92-5.92V51.9c0-3.25,2.65-5.92,5.92-5.92H383.4
		c3.26,0,5.92,2.66,5.92,5.92V63.74z"/>
	<path class="st2" d="M383.4,93.33H146.69c-16.31,0-29.59,13.28-29.59,29.59v112.44H52.01c-9.79,0-17.75,7.96-17.75,17.75v11.84
		c0,9.79,7.96,17.75,17.75,17.75h106.52c7.7,0,14.21-4.97,16.66-11.84H282.8v35.51H175.18c-2.45-6.86-8.96-11.84-16.66-11.84H52.01
		c-9.79,0-17.75,7.96-17.75,17.75v11.84c0,9.79,7.96,17.75,17.75,17.75h236.71c16.31,0,29.59-13.28,29.59-29.59V199.84h65.09
		c9.79,0,17.75-7.96,17.75-17.75v-11.84c0-9.79-7.96-17.75-17.75-17.75H276.88c-7.7,0-14.21,4.97-16.67,11.84h-107.6v-35.51h107.6
		c2.45,6.86,8.96,11.84,16.67,11.84H383.4c9.79,0,17.75-7.96,17.75-17.75v-11.84C401.15,101.28,393.19,93.33,383.4,93.33
		L383.4,93.33z M164.44,264.94c0,3.25-2.65,5.92-5.92,5.92H52.01c-3.26,0-5.92-2.66-5.92-5.92V253.1c0-3.25,2.65-5.92,5.92-5.92
		h106.52c3.26,0,5.92,2.66,5.92,5.92V264.94z M176.28,259.02v-5.92c0-9.79-7.96-17.75-17.75-17.75h-5.92v-11.84H282.8v35.51H176.28z
		 M146.69,330.03H52.01c-3.26,0-5.92-2.66-5.92-5.92v-11.84c0-3.25,2.65-5.92,5.92-5.92h106.52c3.26,0,5.92,2.66,5.92,5.92v11.84
		c0,3.25-2.65,5.92-5.92,5.92H146.69z M306.47,312.28c0,9.79-7.96,17.75-17.75,17.75H175.18c0.66-1.85,1.09-3.84,1.09-5.92v-5.92
		H282.8c6.53,0,11.84-5.31,11.84-11.84V199.84h11.84V312.28z M270.96,170.25c0-3.25,2.65-5.92,5.92-5.92H383.4
		c3.26,0,5.92,2.66,5.92,5.92v11.84c0,3.25-2.65,5.92-5.92,5.92H276.88c-3.26,0-5.92-2.66-5.92-5.92V170.25z M259.13,176.17v5.92
		c0,9.79,7.96,17.75,17.75,17.75h5.92v11.84H152.61v-35.51H259.13z M140.77,128.83v106.52h-11.84V122.91
		c0-9.79,7.96-17.75,17.75-17.75h113.52c-0.66,1.85-1.08,3.84-1.08,5.92V117H152.61C146.08,117,140.77,122.3,140.77,128.83
		L140.77,128.83z M389.31,122.91c0,3.25-2.65,5.92-5.92,5.92H276.88c-3.26,0-5.92-2.66-5.92-5.92v-11.84c0-3.25,2.65-5.92,5.92-5.92
		H383.4c3.26,0,5.92,2.66,5.92,5.92V122.91z"/>
	<path class="st2" d="M158.53,353.7H52.01c-9.79,0-17.75,7.96-17.75,17.75v11.84c0,9.79,7.96,17.75,17.75,17.75h106.52
		c9.79,0,17.75-7.96,17.75-17.75v-11.84C176.28,361.66,168.32,353.7,158.53,353.7L158.53,353.7z M164.44,383.29
		c0,3.25-2.65,5.92-5.92,5.92H52.01c-3.26,0-5.92-2.66-5.92-5.92v-11.84c0-3.25,2.65-5.92,5.92-5.92h106.52
		c3.26,0,5.92,2.66,5.92,5.92V383.29z"/>
	<rect x="164.44" y="140.67" class="st2" width="11.84" height="11.84"/>
	<rect x="188.11" y="140.67" class="st2" width="11.84" height="11.84"/>
	<rect x="259.13" y="282.69" class="st2" width="11.84" height="11.84"/>
	<rect x="235.46" y="282.69" class="st2" width="11.84" height="11.84"/>
</g>
<g class="st0">
	<rect x="146.93" y="241.71" class="st5" width="141.63" height="35.41"/>
	<rect x="146.93" y="159.09" class="st5" width="141.63" height="35.41"/>
	<rect x="282.66" y="212.21" class="st2" width="11.8" height="11.8"/>
	<rect x="259.05" y="212.21" class="st2" width="11.8" height="11.8"/>
	<rect x="164.63" y="129.59" class="st2" width="11.8" height="11.8"/>
	<rect x="141.03" y="129.59" class="st2" width="11.8" height="11.8"/>
	<rect x="141.03" y="294.82" class="st2" width="11.8" height="11.8"/>
	<rect x="164.63" y="294.82" class="st2" width="11.8" height="11.8"/>
	<path class="st2" d="M335.77,156.66v35.41l-8.34,8.34h-10.45c-2.44-6.85-8.93-11.8-16.62-11.8H135.13
		c-7.68,0-14.17,4.96-16.62,11.8h-10.45l-8.34-8.34v-35.41l-15.26-15.26H64.31v11.8h15.26l8.34,8.34v35.41l15.26,15.26h14.24v11.8
		h-14.24l-15.26,15.26v35.41l-8.34,8.34H64.31v11.8h20.14l15.26-15.26v-35.41l8.34-8.34h10.45c2.44,6.86,8.93,11.8,16.62,11.8
		h165.23c7.68,0,14.17-4.95,16.62-11.8h10.45l8.34,8.34v35.41l15.26,15.26h20.14v-11.8h-15.26l-8.34-8.34v-35.41l-15.26-15.26
		h-14.24v-11.8h14.24l15.26-15.26v-35.41l8.34-8.34h15.26v-11.8h-20.14L335.77,156.66z M306.26,229.91c0,3.26-2.66,5.9-5.9,5.9
		H135.13c-3.26,0-5.9-2.65-5.9-5.9v-23.6c0-3.25,2.65-5.9,5.9-5.9h165.23c3.25,0,5.9,2.66,5.9,5.9V229.91z"/>
	<path class="st2" d="M355.91,58.77h15.26v-11.8h-20.14l-27.07,27.07v43.75h-6.98c-2.44-6.85-8.93-11.8-16.62-11.8H135.13
		c-7.68,0-14.17,4.96-16.62,11.8h-6.98V74.04L84.46,46.97H64.31v11.8h15.26l20.14,20.14v30.52L84.46,94.18H64.31v11.8h15.26
		l23.6,23.6h14.24v17.7c0,9.77,7.94,17.7,17.7,17.7h165.23c9.77,0,17.7-7.94,17.7-17.7v-17.7h14.24l23.6-23.6h15.26v-11.8h-20.14
		l-15.26,15.26V78.93L355.91,58.77z M306.26,147.29c0,3.26-2.66,5.9-5.9,5.9H135.13c-3.26,0-5.9-2.65-5.9-5.9v-23.6
		c0-3.25,2.65-5.9,5.9-5.9h165.23c3.25,0,5.9,2.66,5.9,5.9V147.29z"/>
	<path class="st2" d="M332.31,306.62h-14.24v-17.7c0-9.77-7.94-17.7-17.7-17.7H135.13c-9.77,0-17.7,7.94-17.7,17.7v17.7h-14.24
		l-23.6,23.6H64.31v11.8h20.14l15.26-15.26v30.52l-20.14,20.15H64.31v11.8h20.14l27.07-27.07v-43.75h6.98
		c2.44,6.85,8.93,11.8,16.62,11.8h165.23c7.68,0,14.17-4.96,16.62-11.8h6.98v43.75l27.07,27.07h20.14v-11.8h-15.26l-20.14-20.14
		v-30.52l15.26,15.25h20.14v-11.8h-15.26L332.31,306.62z M306.26,312.53c0,3.26-2.66,5.9-5.9,5.9H135.13c-3.26,0-5.9-2.65-5.9-5.9
		v-23.6c0-3.26,2.65-5.9,5.9-5.9h165.23c3.25,0,5.9,2.65,5.9,5.9V312.53z"/>
	<path class="st5" d="M382.98,165c-9.77,0-17.7-7.94-17.7-17.7c0-9.77,7.94-17.7,17.7-17.7s17.7,7.94,17.7,17.7
		C400.68,157.06,392.74,165,382.98,165L382.98,165z"/>
	<path class="st5" d="M382.98,306.62c-9.77,0-17.7-7.94-17.7-17.7s7.94-17.7,17.7-17.7s17.7,7.94,17.7,17.7
		S392.74,306.62,382.98,306.62L382.98,306.62z"/>
	<path class="st5" d="M382.98,70.58c-9.77,0-17.7-7.94-17.7-17.7s7.94-17.7,17.7-17.7s17.7,7.94,17.7,17.7
		S392.74,70.58,382.98,70.58L382.98,70.58z"/>
	<path class="st5" d="M382.98,117.79c-9.77,0-17.7-7.94-17.7-17.7s7.94-17.7,17.7-17.7s17.7,7.94,17.7,17.7
		S392.74,117.79,382.98,117.79L382.98,117.79z"/>
	<path class="st5" d="M52.51,165c-9.77,0-17.7-7.94-17.7-17.7c0-9.77,7.94-17.7,17.7-17.7s17.7,7.94,17.7,17.7
		C70.22,157.06,62.28,165,52.51,165L52.51,165z"/>
	<path class="st5" d="M52.51,306.62c-9.77,0-17.7-7.94-17.7-17.7s7.94-17.7,17.7-17.7s17.7,7.94,17.7,17.7
		S62.28,306.62,52.51,306.62L52.51,306.62z"/>
	<path class="st5" d="M382.98,401.04c-9.77,0-17.7-7.94-17.7-17.7s7.94-17.7,17.7-17.7s17.7,7.94,17.7,17.7
		S392.74,401.04,382.98,401.04L382.98,401.04z"/>
	<path class="st5" d="M382.98,353.83c-9.77,0-17.7-7.94-17.7-17.7c0-9.77,7.94-17.7,17.7-17.7s17.7,7.94,17.7,17.7
		C400.68,345.9,392.74,353.83,382.98,353.83L382.98,353.83z"/>
	<path class="st5" d="M52.51,70.58c-9.77,0-17.7-7.94-17.7-17.7s7.94-17.7,17.7-17.7s17.7,7.94,17.7,17.7S62.28,70.58,52.51,70.58
		L52.51,70.58z"/>
	<path class="st5" d="M52.51,117.79c-9.77,0-17.7-7.94-17.7-17.7s7.94-17.7,17.7-17.7s17.7,7.94,17.7,17.7
		S62.28,117.79,52.51,117.79L52.51,117.79z"/>
	<path class="st5" d="M52.51,401.04c-9.77,0-17.7-7.94-17.7-17.7s7.94-17.7,17.7-17.7s17.7,7.94,17.7,17.7
		S62.28,401.04,52.51,401.04L52.51,401.04z"/>
	<path class="st5" d="M52.51,353.83c-9.77,0-17.7-7.94-17.7-17.7c0-9.77,7.94-17.7,17.7-17.7s17.7,7.94,17.7,17.7
		C70.22,345.9,62.28,353.83,52.51,353.83L52.51,353.83z"/>
</g>
<g class="st0">
	<path class="st5" d="M218,330.29c-62.04,0-112.34-50.3-112.34-112.34c0-12.41,2.1-24.31,5.8-35.48H64.27v-3.71l-29.56,4.54v69.28
		l34.86,5.36c3.46,12.88,8.55,25.2,15.19,36.69l-20.85,28.43l48.98,48.98l28.43-20.85c11.5,6.63,23.81,11.73,36.69,15.18l5.36,34.86
		h69.28l4.55-29.56h-3.72v-23.65h11.83v-23.65h-11.54C242.52,328.16,230.52,330.29,218,330.29L218,330.29z"/>
	<path class="st5" d="M366.44,177.95c-3.46-12.88-8.55-25.2-15.19-36.69l20.85-28.43l-48.98-48.99L294.7,84.7
		c-11.5-6.63-23.82-11.73-36.69-15.18l-5.37-34.86h-69.28l-4.54,29.56h3.71v23.65H170.7v23.65h11.54
		c11.24-3.78,23.25-5.91,35.76-5.91c62.04,0,112.34,50.3,112.34,112.34c0,12.41-2.1,24.31-5.8,35.48h47.19v3.71l29.56-4.54v-69.28
		L366.44,177.95z"/>
	<path class="st2" d="M377.64,282.99v-35.48H332.4c2.53-9.72,3.85-19.62,3.85-29.56c0-65.21-53.05-118.25-118.25-118.25
		c-12.37,0-24.7,2.01-36.66,5.91h-4.73V93.79h11.83V58.31H58.36v35.48h11.83v11.83H58.36v35.48h11.83v11.83H58.36v35.48h45.24
		c-2.53,9.72-3.85,19.62-3.85,29.56c0,65.21,53.05,118.25,118.25,118.25c12.37,0,24.7-2.01,36.66-5.91h4.73v11.83h-11.83v35.48
		h130.08v-35.48h-11.83v-11.83h11.83v-35.48h-11.83v-11.83H377.64z M365.82,271.17H259.39v-11.83h106.43V271.17z M70.18,70.14
		h106.43v11.83H70.18V70.14z M82.01,93.79h82.78v11.83H82.01V93.79z M70.18,117.44h106.43v11.83H70.18V117.44z M82.01,141.09h82.78
		v11.83H82.01V141.09z M70.18,164.74h106.43v11.83H70.18V164.74z M111.57,217.95c0-9.95,1.52-19.87,4.34-29.56h72.53v-35.48h-11.83
		v-11.83h11.83v-25.23c9.7-2.82,19.61-4.34,29.56-4.34c58.68,0,106.43,47.74,106.43,106.43c0,9.95-1.52,19.87-4.33,29.56h-72.54
		v35.48h11.83v11.83h-11.83v25.23c-9.7,2.82-19.61,4.34-29.56,4.34C159.32,324.38,111.57,276.63,111.57,217.95L111.57,217.95z
		 M365.82,365.77H259.39v-11.83h106.43V365.77z M353.99,342.12h-82.78v-11.83h82.78V342.12z M365.82,318.47H259.39v-11.83h106.43
		V318.47z M353.99,294.82h-82.78v-11.83h82.78V294.82z"/>
	<rect x="200.26" y="152.91" class="st2" width="11.83" height="11.83"/>
	<rect x="223.91" y="152.91" class="st2" width="11.83" height="11.83"/>
	<rect x="247.56" y="152.91" class="st2" width="11.83" height="11.83"/>
	<rect x="271.21" y="152.91" class="st2" width="11.83" height="11.83"/>
	<rect x="271.21" y="176.56" class="st2" width="11.83" height="11.83"/>
	<rect x="271.21" y="200.21" class="st2" width="11.83" height="11.83"/>
	<rect x="271.21" y="223.86" class="st2" width="11.83" height="11.83"/>
	<rect x="223.91" y="271.17" class="st2" width="11.83" height="11.83"/>
	<rect x="200.26" y="271.17" class="st2" width="11.83" height="11.83"/>
	<rect x="176.61" y="271.17" class="st2" width="11.83" height="11.83"/>
	<rect x="152.96" y="271.17" class="st2" width="11.83" height="11.83"/>
	<rect x="152.96" y="247.51" class="st2" width="11.83" height="11.83"/>
	<rect x="152.96" y="223.86" class="st2" width="11.83" height="11.83"/>
	<rect x="152.96" y="200.21" class="st2" width="11.83" height="11.83"/>
	<path class="st5" d="M218,241.6c-13.04,0-23.65-10.61-23.65-23.65c0-13.04,10.61-23.65,23.65-23.65
		c13.04,0,23.65,10.61,23.65,23.65C241.65,230.99,231.04,241.6,218,241.6L218,241.6z"/>
</g>
<g>
	<path class="st6" d="M307.08,56.82c-33.65,0-59.02,12.68-59.02,29.51c0,6.95,4.39,13.19,11.87,18.13
		c13.66,3.45,29.79,5.48,47.15,5.48s33.48-2.03,47.15-5.48c7.48-4.94,11.87-11.17,11.87-18.13C366.1,69.5,340.73,56.82,307.08,56.82
		L307.08,56.82z"/>
	<path class="st6" d="M100.52,375.52c-9.77,0-17.71-7.94-17.71-17.71c0-9.77,7.94-17.71,17.71-17.71s17.71,7.94,17.71,17.71
		C118.22,367.58,110.28,375.52,100.52,375.52L100.52,375.52z"/>
	<path class="st6" d="M200.85,375.52h-35.41c-6.51,0-11.8-5.29-11.8-11.8v-11.8c0-6.51,5.29-11.8,11.8-11.8h35.41
		c6.51,0,11.8,5.29,11.8,11.8v11.8C212.65,370.23,207.36,375.52,200.85,375.52L200.85,375.52z"/>
	<rect x="82.81" y="198.46" class="st6" width="59.02" height="11.8"/>
	<rect x="82.81" y="292.89" class="st6" width="59.02" height="11.8"/>
	<rect x="153.63" y="245.68" class="st6" width="59.02" height="11.8"/>
	<rect x="354.3" y="121.74" width="11.8" height="11.8"/>
	<rect x="330.69" y="127.64" width="11.8" height="11.8"/>
	<rect x="354.3" y="216.17" width="11.8" height="11.8"/>
	<rect x="330.69" y="222.07" width="11.8" height="11.8"/>
	<rect x="248.06" y="168.96" width="11.8" height="11.8"/>
	<rect x="271.67" y="174.86" width="11.8" height="11.8"/>
	<path d="M307.08,33.21c-53.83,0-94.43,17.75-94.43,41.31v76.72H65.11c-16.27,0-29.51,13.24-29.51,29.51v188.86
		c0,16.27,13.24,29.51,29.51,29.51h165.25c16.27,0,29.51-13.24,29.51-29.51V253.06c14.47,2.91,30.85,4.43,47.21,4.43
		c46.93,0,94.43-12.17,94.43-35.41V74.53C401.51,50.97,360.92,33.21,307.08,33.21L307.08,33.21z M307.08,45.02
		c48.69,0,82.63,15.55,82.63,29.51s-33.94,29.51-82.63,29.51s-82.63-15.55-82.63-29.51S258.39,45.02,307.08,45.02L307.08,45.02z
		 M71.01,281.09h153.45v35.41H71.01V281.09z M71.01,328.31h153.45v59.02H71.01V328.31z M224.46,269.29H71.01v-35.41h146.27
		c1.88,2.23,4.32,4.31,7.18,6.24V269.29z M71.01,222.07v-35.41h141.64v35.41H71.01z M47.4,369.62V180.76
		c0-9.77,7.94-17.71,17.71-17.71h147.55v11.8H71.01c-6.51,0-11.8,5.29-11.8,11.8v199.58C52.35,383.79,47.4,377.3,47.4,369.62
		L47.4,369.62z M248.06,369.62c0,7.68-4.96,14.17-11.8,16.62V246.27c3.62,1.48,7.59,2.79,11.8,3.98V369.62z M307.08,245.68
		c-50.44,0-82.63-13.98-82.63-23.61V192.9c16.99,11.45,49.92,17.37,82.63,17.37s65.64-5.92,82.63-17.37v29.17
		C389.71,231.7,357.52,245.68,307.08,245.68L307.08,245.68z M307.08,198.46c-50.44,0-82.63-13.98-82.63-23.61v-29.17
		c16.99,11.45,49.92,17.37,82.63,17.37s65.64-5.92,82.63-17.37v29.17C389.71,184.49,357.52,198.46,307.08,198.46L307.08,198.46z
		 M307.08,151.25c-50.44,0-82.63-13.98-82.63-23.61V95.09c15.81,12.58,46.16,20.75,82.63,20.75s66.82-8.16,82.63-20.75v32.55
		C389.71,137.27,357.52,151.25,307.08,151.25L307.08,151.25z"/>
	<rect x="82.81" y="198.46" width="11.8" height="11.8"/>
	<rect x="106.42" y="198.46" width="11.8" height="11.8"/>
	<rect x="130.03" y="198.46" width="11.8" height="11.8"/>
	<rect x="82.81" y="292.89" width="11.8" height="11.8"/>
	<rect x="106.42" y="292.89" width="11.8" height="11.8"/>
	<rect x="130.03" y="292.89" width="11.8" height="11.8"/>
	<rect x="200.85" y="245.68" width="11.8" height="11.8"/>
	<rect x="177.24" y="245.68" width="11.8" height="11.8"/>
	<rect x="153.63" y="245.68" width="11.8" height="11.8"/>
</g>
</svg>
