<?xml version="1.0" encoding="utf-8"?>
<!-- Generator: Adobe Illustrator 24.1.1, SVG Export Plug-In . SVG Version: 6.00 Build 0)  -->
<svg version="1.1" xmlns="http://www.w3.org/2000/svg" xmlns:xlink="http://www.w3.org/1999/xlink" x="0px" y="0px"
	 viewBox="0 0 373 373" style="enable-background:new 0 0 373 373;" xml:space="preserve">
<style type="text/css">
	.st0{display:none;}
	.st1{display:inline;}
	.st2{fill:#0376CF;}
</style>
<g id="text-data" class="st0">
	<g class="st1">
		<path class="st2" d="M204.6,102.24h108.26v78.19H204.6V102.24z"/>
		<path class="st2" d="M84.31,198.48v72.17h84.2v-24.06h24.06v-48.12H84.31z"/>
		<g>
			<path d="M216.63,300.72h12.03v24.06h12.03v-24.06h12.03v-12.03h-36.09V300.72z"/>
			<path d="M312.86,300.72h12.03v24.06h12.03v-24.06h12.03v-12.03h-36.09V300.72z"/>
			<path d="M296.58,284.44l-13.79,13.79l-13.79-13.79l-8.5,8.5l13.79,13.79l-13.79,13.79l8.5,8.5l13.79-13.79l13.79,13.79l8.5-8.5
				l-13.79-13.79l13.79-13.79L296.58,284.44z"/>
			<path d="M348.94,228.55h-12.03V0H135.95l-75.7,75.7v152.85H2.4l21.05,42.1L2.4,312.75h57.85v60.14h276.66v-24.06h12.03
				c13.27,0,24.06-10.79,24.06-24.06V252.6C373,239.34,362.21,228.55,348.94,228.55z M132.42,20.53v51.64H80.78L132.42,20.53z
				 M21.87,300.72l15.04-30.07l-15.04-30.07h38.38v60.14H21.87z M324.88,360.86H72.28V84.2h72.17V12.03h180.43v252.6h-12.03v-72.17
				H204.6v72.17h-9.23l-28.07,42.1l28.07,42.1h129.52V360.86z M300.83,264.63h-84.2v-60.14h84.2V264.63z M360.97,324.78
				c0,6.63-5.39,12.03-12.03,12.03H201.8l-20.05-30.07l20.05-30.07h147.14c4.38,0,8.49-1.17,12.03-3.23V324.78z M348.94,264.63
				h-12.03v-24.06h12.03c6.63,0,12.03,5.39,12.03,12.03C360.97,259.24,355.58,264.63,348.94,264.63z"/>
			<path d="M312.86,24.06H156.48V84.2h156.37V24.06z M300.83,72.17H168.51V36.09h132.32V72.17z"/>
			<path d="M192.57,96.23H84.31v84.2h108.26V96.23z M180.54,168.4h-84.2v-60.14h84.2V168.4z"/>
			<path d="M204.6,96.23h108.26v12.03H204.6V96.23z"/>
			<path d="M204.6,120.29h24.06v12.03H204.6V120.29z"/>
			<path d="M240.68,120.29h72.17v12.03h-72.17V120.29z"/>
			<path d="M204.6,144.35h108.26v12.03H204.6V144.35z"/>
			<path d="M204.6,168.4h84.2v12.03h-84.2V168.4z"/>
			<path d="M300.83,168.4h12.03v12.03h-12.03V168.4z"/>
			<path d="M84.31,192.46h108.26v12.03H84.31V192.46z"/>
			<path d="M84.31,216.52h72.17v12.03H84.31V216.52z"/>
			<path d="M168.51,216.52h24.06v12.03h-24.06V216.52z"/>
			<path d="M84.31,240.58h108.26v12.03H84.31V240.58z"/>
			<path d="M84.31,264.63h84.2v12.03h-84.2V264.63z"/>
			<path d="M114.38,288.69c-16.58,0-30.07,13.49-30.07,30.07s13.49,30.07,30.07,30.07s30.07-13.49,30.07-30.07
				S130.96,288.69,114.38,288.69z M114.38,336.81c-9.95,0-18.04-8.1-18.04-18.04s8.1-18.04,18.04-18.04s18.04,8.1,18.04,18.04
				S124.33,336.81,114.38,336.81z"/>
		</g>
	</g>
</g>
<g id="data_extraction" class="st0">
	<g class="st1">
		<path d="M372.2,0.63H0.2v300h69.52l-11.06,11.06c-6.74,6.74-10.46,15.71-10.46,25.24c0,19.68,16.02,35.7,35.7,35.7
			c9.54,0,18.5-3.72,25.24-10.46l61.54-61.54H372.2V0.63z M360.2,12.63v36h-348v-36H360.2z M100.66,353.69
			c-4.48,4.48-10.43,6.94-16.76,6.94c-13.07,0-23.7-10.63-23.7-23.7c0-6.33,2.46-12.28,6.94-16.76l59.06-59.06l33.52,33.52
			L100.66,353.69z M177.72,276.63l-9.52,9.52l-33.52-33.52l9.52-9.52L177.72,276.63z M182.69,288.63l12-12l-12-12l19.76-19.76
			l-8.48-8.48l-19.76,19.76l-9.52-9.52l19.76-19.76l-8.48-8.48l-19.76,19.76l-12-12l-62.48,62.48H12.2v-228h348v228H182.69z
			 M182.69,288.63"/>
		<path d="M252.2,210.63v-12c4.05,0,7.98-0.79,11.68-2.36l4.68,11.05C263.36,209.52,257.86,210.63,252.2,210.63L252.2,210.63z
			 M252.2,210.63"/>
		<path d="M280.49,199.68l-8.09-8.87c6.23-5.67,9.8-13.75,9.8-22.17c0-16.54-13.46-30-30-30c-16.54,0-30,13.46-30,30h-12
			c0-23.16,18.85-42,42-42s42,18.84,42,42C294.2,180.42,289.21,191.74,280.49,199.68L280.49,199.68z M280.49,199.68"/>
		<rect x="24.2" y="24.63" width="12" height="12"/>
		<rect x="48.2" y="24.63" width="12" height="12"/>
		<rect x="72.2" y="24.63" width="12" height="12"/>
		<path class="st2" d="M252.2,264.63c-52.93,0-96-43.07-96-96s43.07-96,96-96c52.93,0,96,43.07,96,96S305.14,264.63,252.2,264.63
			L252.2,264.63z M252.2,102.63c-36.39,0-66,29.6-66,66s29.61,66,66,66c36.39,0,66-29.61,66-66S288.59,102.63,252.2,102.63
			L252.2,102.63z M252.2,102.63"/>
		<path d="M252.2,240.63c-39.7,0-72-32.3-72-72s32.3-72,72-72c39.7,0,72,32.3,72,72S291.91,240.63,252.2,240.63L252.2,240.63z
			 M252.2,108.63c-33.09,0-60,26.91-60,60s26.91,60,60,60s60-26.91,60-60S285.29,108.63,252.2,108.63L252.2,108.63z M252.2,108.63"
			/>
		<rect x="42.2" y="102.63" class="st2" width="84" height="24"/>
		<rect x="42.2" y="150.63" class="st2" width="84" height="24"/>
		<path d="M144.2,108.63h-120v-36h120V108.63z M36.2,96.63h96v-12h-96V96.63z M36.2,96.63"/>
		<path d="M144.2,156.63h-120v-36h120V156.63z M36.2,144.63h96v-12h-96V144.63z M36.2,144.63"/>
		<path d="M144.2,204.63h-120v-36h120V204.63z M36.2,192.63h96v-12h-96V192.63z M36.2,192.63"/>
	</g>
</g>
<g id="image_data">
	<g>
		<path class="st2" d="M177.49,87.84L174.65,85c-13.38-13.38-31.53-20.9-50.45-20.9c-39.41,0-71.35,31.94-71.35,71.35v47.36
			c0-9.84,7.97-17.81,17.81-17.81h5.94v-11.87l23.74-11.87c15.61,7.81,32.83,11.87,50.29,11.87h32.81V165h5.94
			c9.84,0,17.81,7.97,17.81,17.81v-58.77C207.17,106.44,194.75,91.29,177.49,87.84z"/>
		<g>
			<path d="M331.81,87.84c0-32.73-26.63-59.35-59.35-59.35S213.1,55.11,213.1,87.84s26.63,59.35,59.35,59.35
				S331.81,120.57,331.81,87.84z M239.56,122.01c5.39-13.24,18.41-22.29,32.89-22.29c14.48,0,27.51,9.05,32.89,22.3
				c-8.55,8.22-20.13,13.31-32.89,13.31C259.69,135.33,248.11,130.23,239.56,122.01z M260.59,75.97c0-6.55,5.32-11.87,11.87-11.87
				s11.87,5.32,11.87,11.87s-5.32,11.87-11.87,11.87S260.59,82.52,260.59,75.97z M272.46,40.36c26.18,0,47.48,21.3,47.48,47.48
				c0,8.7-2.39,16.84-6.5,23.86c-5.31-9.13-13.5-16.21-23.18-20.19c3.65-4.17,5.94-9.57,5.94-15.54c0-13.09-10.65-23.74-23.74-23.74
				c-13.09,0-23.74,10.65-23.74,23.74c0,5.97,2.29,11.37,5.94,15.54c-9.69,3.98-17.88,11.06-23.18,20.19
				c-4.11-7.02-6.5-15.16-6.5-23.86C224.97,61.66,246.28,40.36,272.46,40.36z"/>
			<path d="M147.81,212.49h-11.87c0,3.27-2.67,5.94-5.94,5.94c-3.27,0-5.94-2.67-5.94-5.94H112.2c0,9.82,7.99,17.81,17.81,17.81
				C139.82,230.29,147.81,222.3,147.81,212.49z"/>
			<circle cx="106.26" cy="176.87" r="5.94"/>
			<circle cx="153.75" cy="176.87" r="5.94"/>
			<path d="M355.56,173.45V4.74H189.36v87.71c4.85,2.94,8.84,7,11.87,11.72V16.62h142.45v154.32h-49.52
				c-7.92,0-15.38,3.09-20.98,8.69l-15.05,15.05H209.8c2.04-3.51,3.3-7.53,3.3-11.87c0-13.09-10.65-23.74-23.74-23.74V147.2h-38.75
				c-16.45,0-32.92-3.89-47.63-11.25l-2.65-1.32l-29.68,14.84v9.6c-13.09,0-23.74,10.65-23.74,23.74
				c0,13.09,10.65,23.74,23.74,23.74h6.55c6.07,14.47,16.14,26.98,29.06,36.09v7.2l-57.34,20.24
				c-26.06,9.19-43.56,33.93-43.56,61.56v41.1h249.29v-41.1c0-0.15-0.02-0.3-0.02-0.45h89.05c16.36,0,29.68-13.31,29.68-29.68
				v-100.9C373.36,188.48,366.02,178.05,355.56,173.45L355.56,173.45z M263.04,206.55l18.53-18.53c3.31-3.31,7.9-5.21,12.59-5.21
				h49.52c9.82,0,17.81,7.99,17.81,17.81v17.81H176.65c2.36-3.78,4.42-7.75,6.16-11.87h6.55H263.04z M201.23,182.81
				c0,6.55-5.32,11.87-11.87,11.87h-2.61c1.69-6.66,2.61-13.59,2.61-20.7v-3.04C195.91,170.94,201.23,176.26,201.23,182.81z
				 M70.65,194.68c-6.55,0-11.87-5.32-11.87-11.87s5.32-11.87,11.87-11.87v3.04c0,7.1,0.91,14.04,2.61,20.7H70.65z M82.52,173.98
				V156.8l17.85-8.93c15.66,7.34,32.96,11.19,50.24,11.19h26.88v14.92c0,30.45-19,57.47-47.48,67.83
				C101.52,231.45,82.52,204.44,82.52,173.98z M150.78,261.38l7.96,2.81l-3.82,41.98l-17.69-17.69L150.78,261.38z M128.13,253.73
				l1.88,0.62l1.88-0.62c3.46-1.15,6.77-2.57,10-4.13v3.03l-11.87,23.74l-11.87-23.74v-3.03
				C121.36,251.16,124.67,252.57,128.13,253.73z M109.23,261.38l13.55,27.1l-17.69,17.69l-3.82-41.98L109.23,261.38z M242.78,360.87
				h-35.61v-24.76c0-9.24,3.6-17.93,10.13-24.47l-8.39-8.39c-8.78,8.77-13.61,20.44-13.61,32.86v24.76H64.72v-24.76
				c0-12.41-4.83-24.08-13.61-32.86l-8.39,8.39c6.53,6.53,10.13,15.22,10.13,24.47v24.76H17.23v-29.23
				c0-22.61,14.32-42.85,35.64-50.37l36.85-13l5.84,64.22l34.44-34.44l34.44,34.44l5.84-64.22l36.85,13
				c21.31,7.52,35.64,27.77,35.64,50.37V360.87z M343.68,319.33h-90.25c-4.33-22.45-20.23-41.45-42.34-49.25l-57.34-20.24v-7.19
				c5.12-3.61,9.77-7.75,13.92-12.35h193.82v71.23C361.49,311.34,353.5,319.33,343.68,319.33z"/>
			<path d="M337.75,194.68h11.87v11.87h-11.87V194.68z"/>
			<path d="M290.26,194.68h11.87v11.87h-11.87V194.68z"/>
			<path d="M314.01,194.68h11.87v11.87h-11.87V194.68z"/>
		</g>
		<g>
			<path class="st2" d="M337.75,307.45h-35.61c-6.55,0-11.87-5.32-11.87-11.87v-11.87c0-6.55,5.32-11.87,11.87-11.87h35.61
				c6.55,0,11.87,5.32,11.87,11.87v11.87C349.62,302.13,344.3,307.45,337.75,307.45z"/>
		</g>
	</g>
</g>
</svg>
