<?xml version="1.0" encoding="utf-8"?>
<!-- Generator: Adobe Illustrator 24.3.0, SVG Export Plug-In . SVG Version: 6.00 Build 0)  -->
<svg version="1.2" baseProfile="tiny" id="Layer_1" xmlns="http://www.w3.org/2000/svg" xmlns:xlink="http://www.w3.org/1999/xlink"
	 x="0px" y="0px" viewBox="0 0 500 100" overflow="visible" xml:space="preserve">
<g>
	<path fill="#0575ce" d="M153.4,66.9H148l-5-12.5h-19.6l-5,12.5h-5.3l17.2-43.1h5.7L153.4,66.9z M125.4,49.3l-0.2,0.5h16l-0.2-0.5
		c-1-2.5-3.6-9.1-7.9-19.9C130.2,37,127.7,43.7,125.4,49.3z"/>
	<path fill="#0575ce" d="M201.4,54.4l0.4,7c0.2,2.4,0.7,4.3,1.6,5.5h-5.3c-0.9-1.3-1.4-3.2-1.4-5.7l-0.2-4.6c-0.1-2.9-0.8-5-1.9-6.2
		c-1.2-1.2-3.1-1.8-5.7-1.8h-14v18.4h-5.1V23.8H188c4.4,0,8,1,10.6,3.1c2.6,2.1,4,4.9,4,8.7c0,2.6-0.6,4.8-1.9,6.6
		c-1.3,1.8-3,3.1-5.2,3.8C199.1,47.1,201.1,49.9,201.4,54.4z M174.8,43.9h13.7c2.7,0,4.8-0.7,6.4-2.1c1.6-1.4,2.3-3.4,2.3-6
		c0-2.5-0.8-4.3-2.5-5.6c-1.6-1.2-3.9-1.9-6.9-1.9h-13.1V43.9z"/>
	<path fill="#0575ce" d="M215.8,23.8h34.5v4.6h-14.6v38.5h-5.3V28.4h-14.6V23.8z"/>
	<path fill="#0575ce" d="M272.7,66.9h-5.1V23.8h5.1V66.9z"/>
	<path fill="#0575ce" d="M321.8,23.8v4.6h-23.4v13.7h21v4.6h-21v20.1h-5.1V23.8H321.8z"/>
	<path fill="#0575ce" d="M344.7,66.9h-5.1V23.8h5.1V66.9z"/>
	<path fill="#0575ce" d="M383.3,67.9c-5.8,0-10.6-2-14.3-6.1c-3.7-4.1-5.6-9.5-5.6-16.4c0-6.9,1.9-12.3,5.6-16.4
		c3.7-4.1,8.5-6.1,14.3-6.1c4.6,0,8.6,1.3,11.9,3.8c3.3,2.5,5.4,6.2,6.5,11h-5.1c-1.8-6.8-6.2-10.2-13.2-10.2
		c-4.4,0-7.9,1.6-10.6,4.7c-2.7,3.2-4,7.6-4,13.1c0,5.6,1.3,9.9,4,13.1c2.7,3.2,6.2,4.8,10.6,4.8c3.3,0,6.3-1,8.8-3.1
		c2.5-2,4.1-4.9,4.7-8.9h5.1c-0.6,5.4-2.6,9.5-6.1,12.3C392.3,66.4,388.1,67.9,383.3,67.9z"/>
	<path fill="#0575ce" d="M425.5,66.9h-5.1V23.8h5.1V66.9z"/>
	<path fill="#0575ce" d="M479.9,61.6c-3.8,4.2-8.8,6.2-15,6.2c-6.2,0-11.2-2.1-14.9-6.2c-3.8-4.1-5.7-9.5-5.7-16.3
		c0-6.7,1.9-12.2,5.7-16.3c3.8-4.1,8.7-6.2,14.9-6.2c6.2,0,11.2,2.1,15,6.2c3.8,4.2,5.6,9.6,5.6,16.3
		C485.5,52.1,483.6,57.5,479.9,61.6z M453.7,58.4c2.8,3.2,6.5,4.8,11.1,4.8c4.6,0,8.3-1.6,11.1-4.8c2.8-3.2,4.2-7.5,4.2-13
		c0-5.5-1.4-9.8-4.2-13c-2.8-3.2-6.5-4.8-11.1-4.8c-4.6,0-8.3,1.6-11.1,4.8c-2.8,3.2-4.2,7.5-4.2,13
		C449.5,50.9,450.9,55.2,453.7,58.4z"/>
</g>
<path fill="#57BD8F" d="M1.4,68.4l36.1-21.4c2.8-1.7,6.3-1.7,9,0l36.1,21.4c2.2,1.3,2.2,4.5,0,5.8L46.6,95.9c-2.8,1.7-6.3,1.7-9.1,0
	L1.4,74.2C-0.8,72.8-0.8,69.7,1.4,68.4z"/>
<path fill="#EC197A" d="M1.4,53.2l36.1-21.4c2.8-1.7,6.3-1.7,9,0l36.1,21.4c2.2,1.3,2.2,4.5,0,5.8L46.6,80.8c-2.8,1.7-6.3,1.7-9.1,0
	L1.4,59C-0.8,57.7-0.8,54.5,1.4,53.2z"/>
<path fill="#FCB415" d="M1.4,38.1l36.1-21.4c2.8-1.7,6.3-1.7,9,0l36.1,21.4c2.2,1.3,2.2,4.5,0,5.8L46.6,65.6c-2.8,1.7-6.3,1.7-9.1,0
	L1.4,43.9C-0.8,42.6-0.8,39.4,1.4,38.1z"/>
<path fill="#2A75BA" d="M1.4,22.7L37.5,1.2c2.8-1.7,6.3-1.7,9,0l36.1,21.4c2.2,1.3,2.2,4.5,0,5.8L46.6,50.2c-2.8,1.7-6.3,1.7-9.1,0
	L1.4,28.5C-0.8,27.1-0.8,24,1.4,22.7z"/>
</svg>
