<?xml version="1.0" encoding="iso-8859-1"?>
<!-- Generator: Adobe Illustrator 19.0.0, SVG Export Plug-In . SVG Version: 6.00 Build 0)  -->
<svg version="1.1" id="Capa_1" xmlns="http://www.w3.org/2000/svg" xmlns:xlink="http://www.w3.org/1999/xlink" x="0px" y="0px"
	 viewBox="0 0 511.47 511.47" style="enable-background:new 0 0 511.47 511.47;" xml:space="preserve">
<rect x="63.935" y="83.915" style="fill:#FFCE54;" width="443.54" height="207.78"/>
<path style="fill:#FC6E51;" d="M150.313,143.243c-0.679-2.537,0.281-6.135,2.146-7.992c1.857-1.857,1.857-4.901,0-6.759
	c-1.857-1.85-2.817-5.447-2.146-7.991c0.687-2.537-0.835-5.167-3.372-5.846s-5.167-3.309-5.853-5.846
	c-0.671-2.544-3.31-4.066-5.838-3.387c-2.537,0.687-6.134-0.281-7.992-2.139c-1.866-1.865-4.909-1.865-6.767-0.008
	s-5.456,2.817-7.992,2.139c-2.536-0.679-5.174,0.843-5.854,3.379c-0.679,2.544-3.316,5.175-5.853,5.854s-4.058,3.309-3.379,5.854
	c0.679,2.536-0.281,6.134-2.139,7.991c-1.858,1.857-1.857,4.901,0,6.759s2.825,5.456,2.139,7.992
	c-0.679,2.544,0.843,5.174,3.379,5.853s5.174,3.317,5.853,5.853c0.679,2.537,3.317,4.059,5.861,3.372
	c2.536-0.679,6.134,0.281,7.992,2.138s4.893,1.85,6.751-0.008c1.857-1.857,5.455-2.817,7.992-2.138
	c2.536,0.679,5.167-0.835,5.846-3.372c0.679-2.536,3.309-5.174,5.853-5.853C149.478,148.409,151,145.779,150.313,143.243z"/>
<g style="opacity:0.2;">
	<path d="M152.46,128.492c-1.857-1.85-2.817-5.447-2.146-7.991c0.687-2.537-0.835-5.167-3.372-5.846s-5.167-3.309-5.853-5.846
		c-0.671-2.544-3.31-4.066-5.838-3.387c-2.537,0.687-6.134-0.281-7.992-2.139c-1.866-1.865-4.909-1.865-6.767-0.008
		c-0.171,0.172-0.421,0.293-0.617,0.449c1.951,1.538,5.073,2.322,7.383,1.698c2.529-0.679,5.167,0.843,5.837,3.387
		c0.687,2.537,3.317,5.167,5.854,5.846s4.059,3.309,3.372,5.846c-0.671,2.544,0.289,6.142,2.146,7.991
		c1.857,1.857,1.857,4.901,0,6.759c-1.865,1.857-2.825,5.456-2.146,7.992c0.687,2.536-0.835,5.166-3.372,5.845
		c-2.544,0.679-5.174,3.317-5.854,5.853c-0.679,2.537-3.309,4.051-5.845,3.372c-2.302-0.617-5.424,0.16-7.375,1.693
		c0.203,0.156,0.453,0.281,0.625,0.453c1.857,1.857,4.893,1.85,6.751-0.008c1.857-1.857,5.455-2.817,7.992-2.138
		c2.536,0.679,5.167-0.835,5.846-3.372c0.679-2.536,3.309-5.174,5.853-5.853c2.537-0.679,4.058-3.309,3.372-5.845
		c-0.679-2.537,0.281-6.135,2.146-7.992C154.317,133.394,154.317,130.35,152.46,128.492z"/>
</g>
<g style="opacity:0.3;">
	<path style="fill:#FFFFFF;" d="M120.5,158.321c-2.544,0.687-5.182-0.835-5.861-3.372c-0.679-2.536-3.317-5.174-5.854-5.853
		s-4.059-3.309-3.379-5.853c0.687-2.537-0.281-6.135-2.138-7.992s-1.857-4.901,0-6.759c1.857-1.858,2.817-5.455,2.138-7.991
		c-0.679-2.544,0.843-5.175,3.379-5.854s5.174-3.309,5.854-5.854c0.679-2.536,3.316-4.058,5.853-3.379
		c2.302,0.616,5.417-0.16,7.375-1.69c-0.195-0.152-0.438-0.273-0.609-0.441c-1.866-1.865-4.909-1.865-6.767-0.008
		s-5.456,2.817-7.992,2.139c-2.536-0.679-5.174,0.843-5.854,3.379c-0.679,2.544-3.316,5.175-5.853,5.854s-4.058,3.309-3.379,5.854
		c0.679,2.536-0.281,6.134-2.139,7.991c-1.858,1.857-1.857,4.901,0,6.759s2.825,5.456,2.139,7.992
		c-0.679,2.544,0.843,5.174,3.379,5.853s5.174,3.317,5.853,5.853c0.679,2.537,3.317,4.059,5.861,3.372
		c2.536-0.679,6.134,0.281,7.992,2.138s4.893,1.85,6.751-0.008c0.171-0.171,0.414-0.289,0.617-0.445
		C125.909,158.48,122.802,157.704,120.5,158.321z"/>
</g>
<polygon style="fill:#F6BB42;" points="59.938,291.699 507.475,291.699 507.475,323.667 75.922,323.667 "/>
<rect x="3.996" y="83.915" style="fill:#ED5565;" width="59.938" height="207.78"/>
<polygon style="fill:#DA4453;" points="75.922,323.667 19.979,323.667 3.996,291.699 59.938,291.699 "/>
<g>
	<circle style="fill:#FFFFFF;" cx="123.875" cy="131.866" r="7.945"/>
	<rect x="331.655" y="187.806" style="fill:#FFFFFF;" width="143.85" height="31.967"/>
</g>
<g style="opacity:0.2;">
	<polygon points="75.922,99.897 83.913,91.904 75.922,83.913 59.938,83.913 67.929,91.904 59.938,99.897 67.929,107.888 
		59.938,115.88 67.929,123.871 59.938,131.864 67.929,139.855 59.938,147.848 67.929,155.839 59.938,163.831 67.929,171.823 
		59.938,179.814 67.929,187.806 59.938,195.798 67.929,203.79 59.938,211.781 67.929,219.773 59.938,227.765 67.929,235.757 
		59.938,243.747 67.929,251.74 59.938,259.732 67.929,267.724 59.938,275.715 67.929,283.707 59.938,291.699 75.922,291.699 
		83.913,283.707 75.922,275.715 83.913,267.724 75.922,259.732 83.913,251.74 75.922,243.747 83.913,235.757 75.922,227.765 
		83.913,219.773 75.922,211.781 83.913,203.79 75.922,195.798 83.913,187.806 75.922,179.814 83.913,171.823 75.922,163.831 
		83.913,155.839 75.922,147.848 83.913,139.855 75.922,131.864 83.913,123.871 75.922,115.88 83.913,107.888 	"/>
</g>
<g style="opacity:0.2;">
	<rect x="3.996" y="83.915" style="fill:#FFFFFF;" width="15.983" height="207.78"/>
</g>
<g style="opacity:0.2;">
	<rect x="499.485" y="83.915" width="7.992" height="208.28"/>
</g>
<g>
	<polygon style="fill:#656D78;" points="179.814,371.617 179.814,419.566 115.88,419.566 115.88,411.574 115.88,379.608 
		115.88,371.617 	"/>
	<path style="fill:#656D78;" d="M459.524,363.625c17.662,0,31.967,14.306,31.967,31.967s-14.305,31.967-31.967,31.967
		l-263.727-7.991v-47.95L459.524,363.625z"/>
</g>
<rect x="179.815" y="371.616" style="fill:#FFCE54;" width="15.983" height="47.95"/>
<polygon style="fill:#E6E9ED;" points="115.88,379.608 115.88,411.574 99.897,411.574 75.922,419.566 27.971,395.591 
	75.922,371.617 99.897,379.608 "/>
<polygon style="fill:#FFFFFF;" points="43.955,395.591 85.513,374.815 75.922,371.617 27.971,395.591 75.922,419.566 
	85.513,416.367 "/>
<polygon style="fill:#FFCE54;" points="339.648,403.583 475.507,403.583 475.507,387.6 339.648,387.6 323.665,395.591 "/>
<g style="opacity:0.2;">
	<rect x="115.875" y="371.616" style="fill:#FFFFFF;" width="7.992" height="47.95"/>
</g>
<g style="opacity:0.2;">
	<rect x="195.795" y="371.616" width="7.991" height="47.95"/>
</g>
<g style="opacity:0.2;">
	<rect x="107.885" y="379.605" width="7.992" height="31.967"/>
</g>
<g style="opacity:0.2;">
	<polygon points="507.475,323.667 19.979,323.667 3.996,291.699 507.475,291.699 	"/>
</g>
<g>
	<path style="fill:#3A3847;" d="M100.138,255.736c-2.208,0-4.035-1.788-4.035-3.996c0-2.209,1.748-3.996,3.949-3.996h0.086
		c2.201,0,3.996,1.787,3.996,3.996C104.134,253.948,102.339,255.736,100.138,255.736z"/>
	<path style="fill:#3A3847;" d="M116.122,255.736c-2.208,0-4.035-1.788-4.035-3.996c0-2.209,1.748-3.996,3.949-3.996h0.086
		c2.201,0,3.996,1.787,3.996,3.996C120.118,253.948,118.323,255.736,116.122,255.736z"/>
	<path style="fill:#3A3847;" d="M132.105,255.736c-2.208,0-4.035-1.788-4.035-3.996c0-2.209,1.749-3.996,3.949-3.996h0.086
		c2.201,0,3.996,1.787,3.996,3.996C136.101,253.948,134.306,255.736,132.105,255.736z"/>
	<path style="fill:#3A3847;" d="M148.089,255.736c-2.208,0-4.035-1.788-4.035-3.996c0-2.209,1.749-3.996,3.949-3.996h0.085
		c2.201,0,3.996,1.787,3.996,3.996C152.085,253.948,150.29,255.736,148.089,255.736z"/>
	<path style="fill:#3A3847;" d="M180.056,255.736c-2.208,0-4.035-1.788-4.035-3.996c0-2.209,1.748-3.996,3.949-3.996h0.086
		c2.201,0,3.996,1.787,3.996,3.996C184.051,253.948,182.256,255.736,180.056,255.736z"/>
	<path style="fill:#3A3847;" d="M196.039,255.736c-2.208,0-4.035-1.788-4.035-3.996c0-2.209,1.748-3.996,3.949-3.996h0.086
		c2.201,0,3.996,1.787,3.996,3.996C200.035,253.948,198.24,255.736,196.039,255.736z"/>
	<path style="fill:#3A3847;" d="M212.023,255.736c-2.208,0-4.035-1.788-4.035-3.996c0-2.209,1.748-3.996,3.949-3.996h0.085
		c2.201,0,3.996,1.787,3.996,3.996C216.018,253.948,214.223,255.736,212.023,255.736z"/>
	<path style="fill:#3A3847;" d="M228.006,255.736c-2.208,0-4.035-1.788-4.035-3.996c0-2.209,1.748-3.996,3.949-3.996h0.085
		c2.201,0,3.996,1.787,3.996,3.996C232.002,253.948,230.207,255.736,228.006,255.736z"/>
	<path style="fill:#3A3847;" d="M259.973,255.736c-2.209,0-4.035-1.788-4.035-3.996c0-2.209,1.748-3.996,3.949-3.996h0.086
		c2.201,0,3.996,1.787,3.996,3.996C263.969,253.948,262.174,255.736,259.973,255.736z"/>
	<path style="fill:#3A3847;" d="M275.957,255.736c-2.209,0-4.035-1.788-4.035-3.996c0-2.209,1.748-3.996,3.949-3.996h0.086
		c2.2,0,3.995,1.787,3.995,3.996C279.952,253.948,278.157,255.736,275.957,255.736z"/>
	<path style="fill:#3A3847;" d="M291.94,255.736c-2.209,0-4.035-1.788-4.035-3.996c0-2.209,1.748-3.996,3.949-3.996h0.086
		c2.201,0,3.996,1.787,3.996,3.996C295.936,253.948,294.141,255.736,291.94,255.736z"/>
	<path style="fill:#3A3847;" d="M307.923,255.736c-2.209,0-4.035-1.788-4.035-3.996c0-2.209,1.748-3.996,3.949-3.996h0.086
		c2.2,0,3.996,1.787,3.996,3.996C311.92,253.948,310.124,255.736,307.923,255.736z"/>
	<path style="fill:#3A3847;" d="M3.996,295.695c-2.208,0-3.996-1.787-3.996-3.996V83.913c0-2.208,1.788-3.996,3.996-3.996
		c2.209,0,3.996,1.787,3.996,3.996v207.785C7.992,293.908,6.205,295.695,3.996,295.695z"/>
	<path style="fill:#3A3847;" d="M59.938,295.695c-1.022,0-2.045-0.39-2.825-1.171c-1.561-1.561-1.561-4.089,0-5.65l5.166-5.166
		l-5.166-5.167c-1.561-1.561-1.561-4.089,0-5.65l5.166-5.166l-5.166-5.167c-1.561-1.561-1.561-4.09,0-5.65l5.166-5.167l-5.166-5.167
		c-1.561-1.561-1.561-4.089,0-5.65l5.166-5.166l-5.166-5.167c-1.561-1.561-1.561-4.089,0-5.65l5.166-5.167l-5.166-5.167
		c-1.561-1.561-1.561-4.089,0-5.65l5.166-5.167l-5.166-5.167c-1.561-1.561-1.561-4.09,0-5.65l5.166-5.167l-5.166-5.167
		c-1.561-1.561-1.561-4.09,0-5.65l5.166-5.167l-5.166-5.167c-1.561-1.561-1.561-4.09,0-5.65l5.166-5.167l-5.166-5.166
		c-1.561-1.561-1.561-4.09,0-5.65l5.166-5.167l-5.166-5.166c-1.561-1.561-1.561-4.09,0-5.65l5.166-5.167l-5.166-5.166
		c-1.561-1.562-1.561-4.09,0-5.65l5.166-5.167l-5.166-5.166c-1.561-1.562-1.561-4.09,0-5.65l5.166-5.167l-5.166-5.167
		c-1.561-1.561-1.561-4.089,0-5.65c1.561-1.561,4.089-1.561,5.65,0l7.991,7.992c1.562,1.561,1.562,4.09,0,5.65l-5.166,5.167
		l5.166,5.166c1.562,1.561,1.562,4.09,0,5.65l-5.166,5.167l5.166,5.166c1.562,1.561,1.562,4.09,0,5.65l-5.166,5.167l5.166,5.166
		c1.562,1.562,1.562,4.09,0,5.65l-5.166,5.167l5.166,5.166c1.562,1.562,1.562,4.09,0,5.65l-5.166,5.167l5.166,5.167
		c1.562,1.561,1.562,4.089,0,5.65l-5.166,5.167l5.166,5.167c1.562,1.561,1.562,4.089,0,5.65l-5.166,5.167l5.166,5.167
		c1.562,1.561,1.562,4.089,0,5.65l-5.166,5.167l5.166,5.167c1.562,1.561,1.562,4.089,0,5.65l-5.166,5.167l5.166,5.167
		c1.562,1.561,1.562,4.089,0,5.65l-5.166,5.166l5.166,5.167c1.562,1.561,1.562,4.089,0,5.65l-5.166,5.167l5.166,5.167
		c1.562,1.561,1.562,4.09,0,5.65l-5.166,5.166l5.166,5.167c1.562,1.561,1.562,4.089,0,5.65l-7.991,7.991
		C61.983,295.305,60.961,295.695,59.938,295.695z"/>
	<path style="fill:#3A3847;" d="M59.938,87.908H3.996C1.788,87.908,0,86.121,0,83.912s1.788-3.996,3.996-3.996h55.942
		c2.208,0,3.996,1.787,3.996,3.996S62.147,87.908,59.938,87.908z"/>
	<path style="fill:#3A3847;" d="M59.938,295.695H3.996c-2.208,0-3.996-1.787-3.996-3.996c0-2.208,1.788-3.995,3.996-3.995h55.942
		c2.208,0,3.996,1.787,3.996,3.995C63.934,293.908,62.147,295.695,59.938,295.695z"/>
	<path style="fill:#3A3847;" d="M507.475,87.908H75.922c-2.209,0-3.996-1.787-3.996-3.996s1.787-3.996,3.996-3.996h431.553
		c2.208,0,3.995,1.787,3.995,3.996S509.683,87.908,507.475,87.908z"/>
	<path style="fill:#3A3847;" d="M507.475,295.695c-2.209,0-3.996-1.787-3.996-3.996V83.913c0-2.208,1.787-3.996,3.996-3.996
		c2.208,0,3.995,1.787,3.995,3.996v207.785C511.47,293.908,509.683,295.695,507.475,295.695z"/>
	<path style="fill:#3A3847;" d="M507.475,295.695H75.922c-2.209,0-3.996-1.787-3.996-3.996c0-2.208,1.787-3.995,3.996-3.995h431.553
		c2.208,0,3.995,1.787,3.995,3.995C511.47,293.908,509.683,295.695,507.475,295.695z"/>
	<path style="fill:#3A3847;" d="M123.872,165.844c-2.349,0-4.55-0.909-6.197-2.56c-0.585-0.582-2.005-1.186-3.387-1.186
		c-1.482,0.281-2.248,0.382-3.021,0.382c-3.972,0-7.461-2.677-8.476-6.509c-0.312-1.143-1.865-2.704-3.028-3.016
		c-4.651-1.245-7.445-6.056-6.212-10.731c0.32-1.179-0.25-3.298-1.101-4.148c-1.654-1.654-2.56-3.855-2.56-6.204
		c0-2.35,0.905-4.55,2.56-6.205c0.851-0.851,1.421-2.969,1.108-4.12c-1.241-4.702,1.553-9.514,6.212-10.759
		c1.155-0.312,2.708-1.873,3.028-3.036c1.194-4.55,6.135-7.441,10.739-6.196c2.162,0.031,3.551-0.523,4.136-1.104
		c3.309-3.309,9.108-3.305,12.417,0.012c0.578,0.582,2.005,1.187,3.379,1.187c1.482-0.285,2.24-0.383,3.005-0.383
		c3.972,0,7.461,2.681,8.476,6.524c0.312,1.136,1.865,2.693,3.028,3.005c2.255,0.601,4.152,2.057,5.323,4.09
		c1.17,2.037,1.482,4.401,0.866,6.661c-0.297,1.143,0.273,3.27,1.116,4.112c3.426,3.431,3.426,8.995,0.008,12.417
		c-0.859,0.851-1.429,2.974-1.116,4.145c0.608,2.236,0.296,4.601-0.874,6.638c-1.171,2.033-3.067,3.488-5.331,4.089
		c-1.155,0.308-2.708,1.869-3.028,3.04c-1.007,3.809-4.488,6.485-8.468,6.485l0,0c-0.765,0-1.522-0.101-2.264-0.3
		c-2.092-0.113-3.551,0.522-4.128,1.104C128.429,164.932,126.221,165.844,123.872,165.844z M114.288,154.107
		c3.403,0,6.86,1.351,9.038,3.528l0.546,0.218c0.156,0,0.375-0.039,0.562-0.226c2.802-2.81,7.906-4.226,11.847-3.172
		c0.624,0.043,0.851-0.176,0.944-0.535c1.062-3.926,4.792-7.652,8.686-8.69c0-0.008,0.539-0.956,0.539-0.964
		c-1.038-3.917,0.344-9.014,3.2-11.851c0.288-0.285,0.288-0.8-0.008-1.097c-2.849-2.837-4.223-7.925-3.192-11.835l-0.546-0.968
		c-3.887-1.046-7.617-4.769-8.671-8.659c-0.109-0.398-0.469-0.597-0.757-0.597c-4.683,1.17-9.225-0.336-12.042-3.149l-1.108-0.008
		c-2.81,2.817-7.937,4.226-11.855,3.173c-0.375,0.008-0.851,0.167-0.952,0.542c-1.062,3.918-4.784,7.645-8.679,8.69
		c-0.421,0.109-0.671,0.558-0.562,0.976c1.046,3.875-0.312,8.971-3.177,11.835c-0.257,0.262-0.257,0.847,0,1.108
		c2.864,2.864,4.223,7.961,3.169,11.863c-0.102,0.39,0.148,0.839,0.562,0.948c3.895,1.046,7.625,4.772,8.679,8.667
		c0.102,0.394,0.461,0.585,0.757,0.585C112.36,154.228,113.304,154.107,114.288,154.107z"/>
	<path style="fill:#3A3847;" d="M123.872,143.852c-6.61,0-11.987-5.377-11.987-11.987c0-6.61,5.377-11.988,11.987-11.988
		c6.61,0,11.987,5.377,11.987,11.988C135.859,138.475,130.482,143.852,123.872,143.852z M123.872,127.868
		c-2.201,0-3.996,1.791-3.996,3.996s1.795,3.996,3.996,3.996s3.996-1.791,3.996-3.996S126.073,127.868,123.872,127.868z"/>
	<path style="fill:#3A3847;" d="M259.731,119.876h-87.909c-2.208,0-3.996-1.788-3.996-3.996c0-2.209,1.787-3.996,3.996-3.996h87.909
		c2.209,0,3.996,1.787,3.996,3.996C263.727,118.088,261.94,119.876,259.731,119.876z"/>
	<path style="fill:#3A3847;" d="M259.731,135.859h-87.909c-2.208,0-3.996-1.787-3.996-3.996s1.787-3.996,3.996-3.996h87.909
		c2.209,0,3.996,1.787,3.996,3.996C263.727,134.073,261.94,135.859,259.731,135.859z"/>
	<path style="fill:#3A3847;" d="M219.772,151.842h-47.95c-2.208,0-3.996-1.787-3.996-3.996s1.787-3.996,3.996-3.996h47.95
		c2.209,0,3.996,1.787,3.996,3.996C223.768,150.056,221.981,151.842,219.772,151.842z"/>
	<path style="fill:#3A3847;" d="M307.681,199.794H101.894c-2.208,0-3.996-1.787-3.996-3.996s1.787-3.996,3.996-3.996h205.787
		c2.209,0,3.996,1.787,3.996,3.996S309.89,199.794,307.681,199.794z"/>
	<path style="fill:#3A3847;" d="M307.681,215.778H101.894c-2.208,0-3.996-1.787-3.996-3.996c0-2.208,1.787-3.996,3.996-3.996
		h205.787c2.209,0,3.996,1.788,3.996,3.996C311.677,213.99,309.89,215.778,307.681,215.778z"/>
	<path style="fill:#3A3847;" d="M147.847,271.719h-47.95c-2.208,0-3.996-1.787-3.996-3.995c0-2.209,1.787-3.996,3.996-3.996h47.95
		c2.208,0,3.996,1.787,3.996,3.996C151.842,269.932,150.055,271.719,147.847,271.719z"/>
	<path style="fill:#3A3847;" d="M308.43,271.719h-48.699c-2.209,0-3.996-1.787-3.996-3.995c0-2.209,1.787-3.996,3.996-3.996h48.699
		c2.209,0,3.996,1.787,3.996,3.996C312.426,269.932,310.639,271.719,308.43,271.719z"/>
	<path style="fill:#3A3847;" d="M475.507,271.719h-143.85c-2.209,0-3.996-1.787-3.996-3.995c0-2.209,1.787-3.996,3.996-3.996
		h143.851c2.209,0,3.996,1.787,3.996,3.996C479.504,269.932,477.716,271.719,475.507,271.719z"/>
	<path style="fill:#3A3847;" d="M227.764,271.719h-47.95c-2.209,0-3.996-1.787-3.996-3.995c0-2.209,1.787-3.996,3.996-3.996h47.95
		c2.208,0,3.996,1.787,3.996,3.996C231.76,269.932,229.973,271.719,227.764,271.719z"/>
	<path style="fill:#3A3847;" d="M475.507,223.769h-143.85c-2.209,0-3.996-1.787-3.996-3.996v-31.967
		c0-2.208,1.787-3.996,3.996-3.996h143.851c2.209,0,3.996,1.787,3.996,3.996v31.967
		C479.504,221.982,477.716,223.769,475.507,223.769z M335.653,215.778h135.859v-23.976H335.653V215.778z"/>
	<path style="fill:#3A3847;" d="M411.574,279.712c-0.382,0-0.772-0.055-1.155-0.172c-1.686-0.515-2.841-2.061-2.841-3.824v-14.598
		c-6.298,5.389-15.671,11.812-23.827,10.415c-2.341-0.391-5.236-1.538-7.694-4.487c-3.294,4.151-6.603,8.062-9.42,11.293
		c-1.444,1.67-3.965,1.842-5.635,0.39c-1.663-1.451-1.843-3.973-0.391-5.635c3.918-4.511,7.922-9.416,11.512-14.122
		c-2.935-10.56,0.413-19.871,5.034-24.284c3.504-3.333,7.851-4.297,11.948-2.634c1.842,0.75,3.106,2.24,3.574,4.195
		c1.179,4.94-4.495,14.571-11.512,24.124c1.507,2.838,3.2,3.149,3.832,3.267c7.414,1.401,20.573-10.997,23.483-14.427
		c1.077-1.28,2.872-1.788,4.441-1.194c1.576,0.577,2.646,2.044,2.646,3.723v10.778l8.663-12.995c0.741-1.112,1.99-1.779,3.324-1.779
		h15.983c2.209,0,3.996,1.787,3.996,3.996c0,2.208-1.787,3.996-3.996,3.996h-13.845l-14.797,22.196
		C414.141,279.064,412.885,279.712,411.574,279.712z M384.665,239.308c-0.547,0.109-1.218,0.425-1.99,1.159
		c-1.826,1.748-3.239,4.952-3.566,8.822C381.971,245.021,384.008,241.462,384.665,239.308z"/>
	<path style="fill:#3A3847;" d="M355.631,215.778c-2.208,0-3.996-1.787-3.996-3.996v-15.983c0-2.209,1.788-3.996,3.996-3.996
		c2.209,0,3.996,1.787,3.996,3.996v15.983C359.628,213.99,357.84,215.778,355.631,215.778z"/>
	<path style="fill:#3A3847;" d="M379.607,215.778c-6.61,0-11.987-5.377-11.987-11.988s5.377-11.988,11.987-11.988
		s11.987,5.377,11.987,11.988S386.217,215.778,379.607,215.778z M379.607,199.794c-2.201,0-3.996,1.791-3.996,3.996
		s1.795,3.996,3.996,3.996c2.2,0,3.996-1.791,3.996-3.996S381.807,199.794,379.607,199.794z"/>
	<path style="fill:#3A3847;" d="M411.574,215.778c-6.61,0-11.987-5.377-11.987-11.988s5.377-11.988,11.987-11.988
		s11.987,5.377,11.987,11.988S418.184,215.778,411.574,215.778z M411.574,199.794c-2.201,0-3.996,1.791-3.996,3.996
		s1.795,3.996,3.996,3.996s3.996-1.791,3.996-3.996S413.775,199.794,411.574,199.794z"/>
	<path style="fill:#3A3847;" d="M443.541,215.778c-6.61,0-11.987-5.377-11.987-11.988s5.377-11.988,11.987-11.988
		s11.987,5.377,11.987,11.988S450.151,215.778,443.541,215.778z M443.541,199.794c-2.2,0-3.995,1.791-3.995,3.996
		s1.795,3.996,3.995,3.996c2.201,0,3.996-1.791,3.996-3.996S445.742,199.794,443.541,199.794z"/>
	<path style="fill:#3A3847;" d="M75.922,327.661c-1.46,0-2.872-0.812-3.575-2.208l-15.983-31.967
		c-0.983-1.975-0.187-4.379,1.788-5.362c1.982-0.976,4.37-0.188,5.361,1.787l15.983,31.967c0.983,1.975,0.188,4.379-1.787,5.362
		C77.131,327.522,76.522,327.661,75.922,327.661z"/>
	<path style="fill:#3A3847;" d="M75.922,327.661H19.979c-2.208,0-3.996-1.787-3.996-3.995c0-2.209,1.788-3.996,3.996-3.996h55.942
		c2.208,0,3.996,1.787,3.996,3.996C79.917,325.875,78.13,327.661,75.922,327.661z"/>
	<path style="fill:#3A3847;" d="M19.979,327.661c-1.459,0-2.872-0.812-3.574-2.208L0.422,293.487
		c-0.983-1.975-0.188-4.379,1.787-5.362c1.982-0.976,4.37-0.188,5.361,1.787l15.983,31.967c0.983,1.975,0.188,4.379-1.787,5.362
		C21.189,327.522,20.58,327.661,19.979,327.661z"/>
	<path style="fill:#3A3847;" d="M507.475,327.661H91.905c-2.209,0-3.996-1.787-3.996-3.995c0-2.209,1.787-3.996,3.996-3.996h415.57
		c2.208,0,3.995,1.787,3.995,3.996C511.47,325.875,509.683,327.661,507.475,327.661z"/>
	<path style="fill:#3A3847;" d="M507.475,311.677H83.913c-2.208,0-3.996-1.787-3.996-3.996c0-2.208,1.788-3.995,3.996-3.995h423.562
		c2.208,0,3.995,1.787,3.995,3.995C511.47,309.891,509.683,311.677,507.475,311.677z"/>
	<path style="fill:#3A3847;" d="M27.971,399.587c-1.46,0-2.872-0.812-3.575-2.209c-0.983-1.974-0.188-4.378,1.787-5.361
		l47.951-23.976c0.952-0.468,2.044-0.554,3.051-0.218l23.359,7.788h15.335c2.208,0,3.996,1.787,3.996,3.996
		s-1.787,3.996-3.996,3.996H99.896c-0.429,0-0.859-0.07-1.264-0.203l-22.407-7.469l-46.467,23.234
		C29.18,399.447,28.572,399.587,27.971,399.587z"/>
	<path style="fill:#3A3847;" d="M75.922,423.563c-0.617,0-1.226-0.141-1.787-0.422l-47.951-23.975
		c-1.975-0.984-2.771-3.388-1.787-5.362c0.999-1.975,3.387-2.755,5.362-1.787l46.467,23.233l22.407-7.469
		c0.405-0.133,0.835-0.203,1.264-0.203h15.983c2.208,0,3.996,1.788,3.996,3.996c0,2.209-1.787,3.996-3.996,3.996h-15.335
		l-23.359,7.789C76.772,423.501,76.35,423.563,75.922,423.563z"/>
	<path style="fill:#3A3847;" d="M195.797,423.563c-2.209,0-3.996-1.787-3.996-3.996v-47.95c0-2.209,1.787-3.996,3.996-3.996
		c2.208,0,3.996,1.787,3.996,3.996v47.95C199.793,421.776,198.006,423.563,195.797,423.563z"/>
	<path style="fill:#3A3847;" d="M195.797,375.612c-2.154,0-3.926-1.709-3.996-3.871c-0.062-2.208,1.67-4.05,3.871-4.12
		l263.727-7.992c0.047,0,0.086,0,0.125,0c2.154,0,3.926,1.71,3.996,3.871c0.062,2.209-1.67,4.051-3.871,4.121l-263.727,7.991
		C195.876,375.612,195.837,375.612,195.797,375.612z"/>
	<path style="fill:#3A3847;" d="M459.524,431.553c-0.039,0-0.078,0-0.125,0l-263.727-7.991c-2.201-0.07-3.934-1.912-3.871-4.121
		c0.07-2.162,1.842-3.871,3.996-3.871c0.039,0,0.078,0,0.125,0l263.727,7.992c2.201,0.07,3.934,1.912,3.871,4.12
		C463.45,429.845,461.678,431.553,459.524,431.553z"/>
	<path style="fill:#3A3847;" d="M459.524,431.553c-2.209,0-3.996-1.787-3.996-3.996c0-2.208,1.787-3.995,3.996-3.995
		c15.422,0,27.971-12.55,27.971-27.972c0-15.421-12.549-27.971-27.971-27.971c-2.209,0-3.996-1.787-3.996-3.996
		c0-2.208,1.787-3.996,3.996-3.996c19.831,0,35.963,16.132,35.963,35.963S479.355,431.553,459.524,431.553z"/>
	<path style="fill:#3A3847;" d="M491.491,415.57c-2.208,0-3.996-1.787-3.996-3.996v-31.967c0-2.209,1.788-3.996,3.996-3.996
		c2.209,0,3.996,1.787,3.996,3.996v31.967C495.487,413.784,493.7,415.57,491.491,415.57z"/>
	<path style="fill:#3A3847;" d="M475.507,391.595H339.648c-2.208,0-3.995-1.788-3.995-3.996c0-2.209,1.787-3.996,3.995-3.996
		h135.859c2.209,0,3.996,1.787,3.996,3.996C479.504,389.807,477.716,391.595,475.507,391.595z"/>
	<path style="fill:#3A3847;" d="M475.507,407.578H339.648c-2.208,0-3.995-1.787-3.995-3.995c0-2.209,1.787-3.996,3.995-3.996
		h135.859c2.209,0,3.996,1.787,3.996,3.996C479.504,405.792,477.716,407.578,475.507,407.578z"/>
	<path style="fill:#3A3847;" d="M339.648,407.578c-0.601,0-1.21-0.14-1.787-0.421l-15.983-7.991c-1.35-0.68-2.209-2.061-2.209-3.575
		s0.859-2.896,2.209-3.574l15.983-7.991c1.982-0.977,4.37-0.188,5.362,1.787c0.982,1.975,0.187,4.378-1.787,5.361l-8.835,4.417
		l8.835,4.417c1.974,0.984,2.77,3.388,1.787,5.362C342.52,406.768,341.108,407.578,339.648,407.578z"/>
	<path style="fill:#3A3847;" d="M179.814,423.563c-2.209,0-3.996-1.787-3.996-3.996v-47.95c0-2.209,1.787-3.996,3.996-3.996
		c2.208,0,3.996,1.787,3.996,3.996v47.95C183.81,421.776,182.022,423.563,179.814,423.563z"/>
	<path style="fill:#3A3847;" d="M195.797,423.563h-15.983c-2.209,0-3.996-1.787-3.996-3.996s1.787-3.996,3.996-3.996h15.983
		c2.208,0,3.996,1.787,3.996,3.996S198.006,423.563,195.797,423.563z"/>
	<path style="fill:#3A3847;" d="M195.797,375.612h-15.983c-2.209,0-3.996-1.787-3.996-3.995c0-2.209,1.787-3.996,3.996-3.996h15.983
		c2.208,0,3.996,1.787,3.996,3.996C199.793,373.824,198.006,375.612,195.797,375.612z"/>
	<path style="fill:#3A3847;" d="M115.88,423.563c-2.208,0-3.996-1.787-3.996-3.996v-47.95c0-2.209,1.787-3.996,3.996-3.996
		s3.996,1.787,3.996,3.996v47.95C119.876,421.776,118.089,423.563,115.88,423.563z"/>
	<path style="fill:#3A3847;" d="M179.814,423.563H115.88c-2.208,0-3.996-1.787-3.996-3.996s1.787-3.996,3.996-3.996h63.934
		c2.208,0,3.996,1.787,3.996,3.996S182.022,423.563,179.814,423.563z"/>
	<path style="fill:#3A3847;" d="M179.814,375.612H115.88c-2.208,0-3.996-1.787-3.996-3.995c0-2.209,1.787-3.996,3.996-3.996h63.934
		c2.208,0,3.996,1.787,3.996,3.996C183.81,373.824,182.022,375.612,179.814,375.612z"/>
</g>
<g>
</g>
<g>
</g>
<g>
</g>
<g>
</g>
<g>
</g>
<g>
</g>
<g>
</g>
<g>
</g>
<g>
</g>
<g>
</g>
<g>
</g>
<g>
</g>
<g>
</g>
<g>
</g>
<g>
</g>
</svg>
