<?xml version="1.0" encoding="utf-8"?>
<!-- Generator: Adobe Illustrator 24.1.1, SVG Export Plug-In . SVG Version: 6.00 Build 0)  -->
<svg version="1.1" id="Layer_1" xmlns="http://www.w3.org/2000/svg" xmlns:xlink="http://www.w3.org/1999/xlink" x="0px" y="0px"
	 viewBox="0 0 373 373" style="enable-background:new 0 0 373 373;" xml:space="preserve">
<style type="text/css">
	.st0{display:none;}
	.st1{display:inline;}
	.st2{display:inline;fill:#0376CF;}
	.st3{fill:#0376CF;}
</style>
<g class="st0">
	<path class="st1" d="M372.2,0.63H0.2v300h69.52l-11.06,11.06c-6.74,6.74-10.46,15.71-10.46,25.24c0,19.68,16.02,35.7,35.7,35.7
		c9.54,0,18.5-3.72,25.24-10.46l61.54-61.54H372.2V0.63z M360.2,12.63v36h-348v-36H360.2z M100.66,353.69
		c-4.48,4.48-10.43,6.94-16.76,6.94c-13.07,0-23.7-10.63-23.7-23.7c0-6.33,2.46-12.28,6.94-16.76l59.06-59.06l33.52,33.52
		L100.66,353.69z M177.72,276.63l-9.52,9.52l-33.52-33.52l9.52-9.52L177.72,276.63z M182.69,288.63l12-12l-12-12l19.76-19.76
		l-8.48-8.48l-19.76,19.76l-9.52-9.52l19.76-19.76l-8.48-8.48l-19.76,19.76l-12-12l-62.48,62.48H12.2v-228h348v228H182.69z
		 M182.69,288.63"/>
	<path class="st1" d="M252.2,210.63v-12c4.05,0,7.98-0.79,11.68-2.36l4.68,11.05C263.36,209.52,257.86,210.63,252.2,210.63
		L252.2,210.63z M252.2,210.63"/>
	<path class="st1" d="M280.49,199.68l-8.09-8.87c6.23-5.67,9.8-13.75,9.8-22.17c0-16.54-13.46-30-30-30c-16.54,0-30,13.46-30,30h-12
		c0-23.16,18.85-42,42-42s42,18.84,42,42C294.2,180.42,289.21,191.74,280.49,199.68L280.49,199.68z M280.49,199.68"/>
	<rect x="24.2" y="24.63" class="st1" width="12" height="12"/>
	<rect x="48.2" y="24.63" class="st1" width="12" height="12"/>
	<rect x="72.2" y="24.63" class="st1" width="12" height="12"/>
	<path class="st2" d="M252.2,264.63c-52.93,0-96-43.07-96-96s43.07-96,96-96c52.93,0,96,43.07,96,96S305.14,264.63,252.2,264.63
		L252.2,264.63z M252.2,102.63c-36.39,0-66,29.6-66,66s29.61,66,66,66c36.39,0,66-29.61,66-66S288.59,102.63,252.2,102.63
		L252.2,102.63z M252.2,102.63"/>
	<path class="st1" d="M252.2,240.63c-39.7,0-72-32.3-72-72s32.3-72,72-72c39.7,0,72,32.3,72,72S291.91,240.63,252.2,240.63
		L252.2,240.63z M252.2,108.63c-33.09,0-60,26.91-60,60s26.91,60,60,60s60-26.91,60-60S285.29,108.63,252.2,108.63L252.2,108.63z
		 M252.2,108.63"/>
	<rect x="42.2" y="102.63" class="st2" width="84" height="24"/>
	<rect x="42.2" y="150.63" class="st2" width="84" height="24"/>
	<path class="st1" d="M144.2,108.63h-120v-36h120V108.63z M36.2,96.63h96v-12h-96V96.63z M36.2,96.63"/>
	<path class="st1" d="M144.2,156.63h-120v-36h120V156.63z M36.2,144.63h96v-12h-96V144.63z M36.2,144.63"/>
	<path class="st1" d="M144.2,204.63h-120v-36h120V204.63z M36.2,192.63h96v-12h-96V192.63z M36.2,192.63"/>
</g>
<g>
	<path class="st3" d="M204.6,102.24h108.26v78.19H204.6V102.24z"/>
	<path class="st3" d="M84.31,198.48v72.17h84.2v-24.06h24.06v-48.12H84.31z"/>
	<g>
		<path d="M216.63,300.72h12.03v24.06h12.03v-24.06h12.03v-12.03h-36.09V300.72z"/>
		<path d="M312.86,300.72h12.03v24.06h12.03v-24.06h12.03v-12.03h-36.09V300.72z"/>
		<path d="M296.58,284.44l-13.79,13.79l-13.79-13.79l-8.5,8.5l13.79,13.79l-13.79,13.79l8.5,8.5l13.79-13.79l13.79,13.79l8.5-8.5
			l-13.79-13.79l13.79-13.79L296.58,284.44z"/>
		<path d="M348.94,228.55h-12.03V0H135.95l-75.7,75.7v152.85H2.4l21.05,42.1L2.4,312.75h57.85v60.14h276.66v-24.06h12.03
			c13.27,0,24.06-10.79,24.06-24.06V252.6C373,239.34,362.21,228.55,348.94,228.55z M132.42,20.53v51.64H80.78L132.42,20.53z
			 M21.87,300.72l15.04-30.07l-15.04-30.07h38.38v60.14H21.87z M324.88,360.86H72.28V84.2h72.17V12.03h180.43v252.6h-12.03v-72.17
			H204.6v72.17h-9.23l-28.07,42.1l28.07,42.1h129.52V360.86z M300.83,264.63h-84.2v-60.14h84.2V264.63z M360.97,324.78
			c0,6.63-5.39,12.03-12.03,12.03H201.8l-20.05-30.07l20.05-30.07h147.14c4.38,0,8.49-1.17,12.03-3.23V324.78z M348.94,264.63
			h-12.03v-24.06h12.03c6.63,0,12.03,5.39,12.03,12.03C360.97,259.24,355.58,264.63,348.94,264.63z"/>
		<path d="M312.86,24.06H156.48V84.2h156.37V24.06z M300.83,72.17H168.51V36.09h132.32V72.17z"/>
		<path d="M192.57,96.23H84.31v84.2h108.26V96.23z M180.54,168.4h-84.2v-60.14h84.2V168.4z"/>
		<path d="M204.6,96.23h108.26v12.03H204.6V96.23z"/>
		<path d="M204.6,120.29h24.06v12.03H204.6V120.29z"/>
		<path d="M240.68,120.29h72.17v12.03h-72.17V120.29z"/>
		<path d="M204.6,144.35h108.26v12.03H204.6V144.35z"/>
		<path d="M204.6,168.4h84.2v12.03h-84.2V168.4z"/>
		<path d="M300.83,168.4h12.03v12.03h-12.03V168.4z"/>
		<path d="M84.31,192.46h108.26v12.03H84.31V192.46z"/>
		<path d="M84.31,216.52h72.17v12.03H84.31V216.52z"/>
		<path d="M168.51,216.52h24.06v12.03h-24.06V216.52z"/>
		<path d="M84.31,240.58h108.26v12.03H84.31V240.58z"/>
		<path d="M84.31,264.63h84.2v12.03h-84.2V264.63z"/>
		<path d="M114.38,288.69c-16.58,0-30.07,13.49-30.07,30.07s13.49,30.07,30.07,30.07s30.07-13.49,30.07-30.07
			S130.96,288.69,114.38,288.69z M114.38,336.81c-9.95,0-18.04-8.1-18.04-18.04s8.1-18.04,18.04-18.04s18.04,8.1,18.04,18.04
			S124.33,336.81,114.38,336.81z"/>
	</g>
</g>
</svg>
