<?xml version="1.0" encoding="utf-8"?>
<!-- Generator: Adobe Illustrator 24.1.1, SVG Export Plug-In . SVG Version: 6.00 Build 0)  -->
<svg version="1.1" id="Layer_1" xmlns="http://www.w3.org/2000/svg" xmlns:xlink="http://www.w3.org/1999/xlink" x="0px" y="0px"
	 viewBox="0 0 435.89 435.89" style="enable-background:new 0 0 435.89 435.89;" xml:space="preserve">
<style type="text/css">
	.st0{display:none;}
	.st1{display:inline;fill:#232323;}
	.st2{display:inline;}
	.st3{fill:none;}
	.st4{fill:#232323;}
	.st5{display:inline;fill:#0376CF;}
	.st6{fill:#0376CF;}
	.st7{fill:#FFFFFF;}
</style>
<g class="st0">
	<path class="st1" d="M366.01,68.71h-296c-20.28,0-36.72,16.44-36.72,36.72V329.6c0,20.28,16.44,36.72,36.72,36.72h296
		c20.28,0,36.72-16.44,36.72-36.72V105.43C402.73,85.15,386.29,68.71,366.01,68.71z M374.59,339.37H59.47V93.7h315.12V339.37z"/>
	<circle class="st1" cx="119.74" cy="155.93" r="36.69"/>
	<polygon class="st1" points="83.05,312.51 83.05,276.48 143.33,216.53 173.46,247.65 272.39,148.07 349.04,227.34 349.04,312.51 	
		"/>
</g>
<g class="st0">
	<g class="st2">
		<polygon class="st3" points="272.07,56.7 269.06,56.7 269.06,139.1 349.57,139.1 349.57,134.2 		"/>
		<polygon class="st3" points="243.49,56.7 81.52,56.7 81.52,377.78 349.57,377.78 349.57,164.67 243.49,164.67 		"/>
		<path class="st4" d="M368.44,117.91l-79.13-79.13c-5.37-5.37-12.66-8.39-20.26-8.39h0h-25.57H86.5
			c-15.82,0-28.65,12.83-28.65,28.65v317.33c0,15.82,12.83,28.65,28.65,28.65h261.69c15.82,0,28.65-12.83,28.65-28.65v-211.7V139.1
			v-0.92C376.83,130.57,373.82,123.29,368.44,117.91z M343.54,377.78H87.55c-3.33,0-6.03-2.7-6.03-6.03V62.72
			c0-3.33,2.7-6.03,6.03-6.03h149.9c3.33,0,6.03,2.7,6.03,6.03v86.32c0,8.63,7,15.63,15.63,15.63h84.42c3.33,0,6.03,2.7,6.03,6.03
			v201.05C349.57,375.08,346.87,377.78,343.54,377.78z M275.09,139.1c-3.33,0-6.03-2.7-6.03-6.03V56.7h3.01l75.73,75.73
			c1.13,1.13,1.77,2.66,1.77,4.26v2.4H275.09z"/>
	</g>
	<rect x="139.54" y="190.01" class="st1" width="154.15" height="27.23"/>
	<rect x="139.54" y="241.07" class="st1" width="154.15" height="27.23"/>
	<rect x="139.54" y="292.14" class="st1" width="154.15" height="27.23"/>
</g>
<g class="st0">
	<g class="st2">
		<g>
			<rect x="137.74" y="137.53" class="st4" width="158.84" height="26.36"/>
		</g>
		<g>
			<rect x="137.74" y="202.75" class="st4" width="158.84" height="26.36"/>
		</g>
		<g>
			<rect x="137.74" y="267.98" class="st4" width="106.12" height="26.36"/>
		</g>
		<g>
			<g>
				<path class="st4" d="M85.69,137.53v-26.7c0-14.37,11.65-26.02,26.02-26.02h26.02V59.17h-34.16c-24.44,0-44.25,19.81-44.25,44.25
					v34.11H85.69z"/>
				<path class="st4" d="M296.58,84.81h26.7c14.37,0,26.02,11.65,26.02,26.02v26.7h27.02v-34.11c0-24.44-19.81-44.25-44.25-44.25
					h-35.49V84.81z"/>
				<path class="st4" d="M349.3,294.34v28.05c0,14.37-11.65,26.02-26.02,26.02h-26.7v27.66h35.49c24.44,0,44.25-19.81,44.25-44.25
					v-37.49H349.3z"/>
				<path class="st4" d="M137.74,348.41h-26.02c-14.37,0-26.02-11.65-26.02-26.02v-28.05H59.33v37.49
					c0,24.44,19.81,44.25,44.25,44.25h34.16V348.41z"/>
			</g>
		</g>
	</g>
</g>
<g class="st0">
	<path class="st5" d="M205.82,117.99l-2.79-2.79c-13.11-13.11-30.89-20.48-49.43-20.48c-38.61,0-69.91,31.3-69.91,69.91v46.4
		c0-9.64,7.81-17.45,17.45-17.45h5.82v-11.63l23.26-11.63c15.29,7.65,32.16,11.63,49.27,11.63h32.15v11.63h5.82
		c9.64,0,17.45,7.81,17.45,17.45v-57.58C234.89,136.22,222.72,121.37,205.82,117.99z"/>
	<g class="st2">
		<path d="M357.02,117.99c0-32.07-26.09-58.15-58.15-58.15s-58.15,26.09-58.15,58.15s26.09,58.15,58.15,58.15
			S357.02,150.06,357.02,117.99z M266.63,151.46c5.28-12.97,18.03-21.84,32.23-21.84c14.19,0,26.95,8.87,32.23,21.85
			c-8.37,8.05-19.72,13.04-32.23,13.04C286.35,164.51,275,159.52,266.63,151.46z M287.23,106.36c0-6.41,5.22-11.63,11.63-11.63
			c6.41,0,11.63,5.22,11.63,11.63c0,6.41-5.22,11.63-11.63,11.63C292.45,117.99,287.23,112.77,287.23,106.36z M298.86,71.47
			c25.65,0,46.52,20.87,46.52,46.52c0,8.53-2.34,16.5-6.37,23.38c-5.2-8.95-13.22-15.88-22.71-19.78c3.58-4.09,5.82-9.37,5.82-15.22
			c0-12.83-10.43-23.26-23.26-23.26c-12.83,0-23.26,10.43-23.26,23.26c0,5.85,2.24,11.14,5.82,15.22
			c-9.49,3.9-17.52,10.83-22.71,19.78c-4.02-6.88-6.37-14.85-6.37-23.38C252.34,92.34,273.21,71.47,298.86,71.47z"/>
		<path d="M176.74,240.11h-11.63c0,3.2-2.61,5.82-5.82,5.82c-3.2,0-5.82-2.61-5.82-5.82h-11.63c0,9.62,7.83,17.45,17.45,17.45
			C168.91,257.56,176.74,249.73,176.74,240.11z"/>
		<circle cx="136.03" cy="205.22" r="5.82"/>
		<circle cx="182.55" cy="205.22" r="5.82"/>
		<path d="M380.28,201.87V36.57H217.45v85.93c4.75,2.88,8.66,6.86,11.63,11.48V48.21h139.57v151.2h-48.52
			c-7.76,0-15.07,3.02-20.56,8.51l-14.75,14.75h-47.35c2-3.44,3.23-7.37,3.23-11.63c0-12.83-10.43-23.26-23.26-23.26v-11.63h-37.96
			c-16.12,0-32.26-3.81-46.67-11.02l-2.6-1.3l-29.08,14.54v9.41c-12.83,0-23.26,10.43-23.26,23.26c0,12.83,10.43,23.26,23.26,23.26
			h6.42c5.95,14.18,15.81,26.44,28.47,35.36v7.05l-56.18,19.83c-25.53,9-42.68,33.25-42.68,60.32v40.27h244.25v-40.27
			c0-0.15-0.02-0.29-0.02-0.44h87.25c16.03,0,29.08-13.04,29.08-29.08v-98.86C397.72,216.59,390.53,206.37,380.28,201.87
			L380.28,201.87z M289.64,234.3l18.16-18.16c3.24-3.24,7.74-5.11,12.33-5.11h48.52c9.62,0,17.45,7.83,17.45,17.45v17.45H205
			c2.31-3.7,4.33-7.59,6.03-11.63h6.42H289.64z M229.08,211.04c0,6.41-5.22,11.63-11.63,11.63h-2.55
			c1.66-6.52,2.55-13.32,2.55-20.28v-2.98C223.86,199.4,229.08,204.62,229.08,211.04z M101.14,222.67
			c-6.41,0-11.63-5.22-11.63-11.63c0-6.41,5.22-11.63,11.63-11.63v2.98c0,6.96,0.9,13.75,2.55,20.28H101.14z M112.77,202.39v-16.84
			l17.49-8.75c15.34,7.19,32.29,10.97,49.23,10.97h26.33v14.61c0,29.84-18.62,56.3-46.52,66.46
			C131.39,258.69,112.77,232.23,112.77,202.39z M179.65,288.01l7.8,2.75l-3.74,41.13l-17.33-17.33L179.65,288.01z M157.46,280.52
			l1.84,0.61l1.84-0.61c3.39-1.13,6.64-2.52,9.79-4.04v2.97l-11.63,23.26l-11.63-23.26v-2.97
			C150.82,278.01,154.07,279.39,157.46,280.52z M138.94,288.01l13.28,26.55l-17.33,17.33l-3.74-41.13L138.94,288.01z M269.79,385.5
			h-34.89v-24.26c0-9.05,3.52-17.57,9.93-23.97l-8.22-8.22c-8.6,8.6-13.33,20.03-13.33,32.19v24.26H95.32v-24.26
			c0-12.16-4.73-23.59-13.33-32.19l-8.22,8.22c6.4,6.4,9.93,14.91,9.93,23.97v24.26H48.8v-28.64c0-22.15,14.03-41.99,34.92-49.36
			l36.11-12.74l5.72,62.92l33.74-33.75l33.75,33.75l5.72-62.92l36.11,12.74c20.88,7.37,34.92,27.21,34.92,49.36V385.5z
			 M368.65,344.79h-88.43c-4.25-21.99-19.82-40.61-41.48-48.26l-56.18-19.83v-7.05c5.01-3.54,9.57-7.59,13.64-12.1h189.9v69.78
			C386.09,336.96,378.27,344.79,368.65,344.79z"/>
		<path d="M362.83,222.67h11.63v11.63h-11.63V222.67z"/>
		<path d="M316.31,222.67h11.63v11.63h-11.63V222.67z"/>
		<path d="M339.57,222.67h11.63v11.63h-11.63V222.67z"/>
	</g>
	<g class="st2">
		<path class="st6" d="M362.83,333.16h-34.89c-6.41,0-11.63-5.22-11.63-11.63V309.9c0-6.41,5.22-11.63,11.63-11.63h34.89
			c6.41,0,11.63,5.22,11.63,11.63v11.63C374.46,327.94,369.25,333.16,362.83,333.16z"/>
	</g>
</g>
<g class="st0">
	<path class="st5" d="M234.38,133.95h107.16v77.39H234.38V133.95z"/>
	<path class="st5" d="M115.32,229.2v71.44h83.34v-23.81h23.81V229.2H115.32z"/>
	<g class="st2">
		<path d="M246.29,330.41h11.91v23.81h11.91v-23.81h11.91V318.5h-35.72V330.41z"/>
		<path d="M341.54,330.41h11.91v23.81h11.91v-23.81h11.91V318.5h-35.72V330.41z"/>
		<path d="M325.42,314.29l-13.65,13.65l-13.65-13.65l-8.42,8.42l13.65,13.65l-13.65,13.65l8.42,8.42l13.65-13.65l13.65,13.65
			l8.42-8.42l-13.65-13.65l13.65-13.65L325.42,314.29z"/>
		<path d="M377.26,258.97h-11.91V32.75H166.43l-74.93,74.93v151.29H34.25l20.84,41.67l-20.84,41.67h57.26v59.53h273.85v-23.81h11.91
			c13.13,0,23.81-10.68,23.81-23.81v-71.44C401.07,269.65,390.39,258.97,377.26,258.97z M162.94,53.07v51.11h-51.11L162.94,53.07z
			 M53.51,330.41l14.88-29.77l-14.88-29.77h37.99v59.53H53.51z M353.45,389.94H103.41V116.09h71.44V44.66h178.6v250.03h-11.91
			v-71.44H234.38v71.44h-9.14l-27.78,41.67l27.78,41.67h128.2V389.94z M329.63,294.69h-83.34v-59.53h83.34V294.69z M389.17,354.22
			c0,6.57-5.34,11.91-11.91,11.91H231.61l-19.84-29.77l19.84-29.77h145.64c4.33,0,8.4-1.16,11.91-3.2V354.22z M377.26,294.69h-11.91
			v-23.81h11.91c6.57,0,11.91,5.34,11.91,11.91S383.83,294.69,377.26,294.69z"/>
		<path d="M341.54,56.56H186.76v59.53h154.78V56.56z M329.63,104.19H198.66V68.47h130.97V104.19z"/>
		<path d="M222.48,128H115.32v83.34h107.16V128z M210.57,199.44h-83.34v-59.53h83.34V199.44z"/>
		<path d="M234.38,128h107.16v11.91H234.38V128z"/>
		<path d="M234.38,151.81h23.81v11.91h-23.81V151.81z"/>
		<path d="M270.1,151.81h71.44v11.91H270.1V151.81z"/>
		<path d="M234.38,175.63h107.16v11.91H234.38V175.63z"/>
		<path d="M234.38,199.44h83.34v11.91h-83.34V199.44z"/>
		<path d="M329.63,199.44h11.91v11.91h-11.91V199.44z"/>
		<path d="M115.32,223.25h107.16v11.91H115.32V223.25z"/>
		<path d="M115.32,247.06h71.44v11.91h-71.44V247.06z"/>
		<path d="M198.66,247.06h23.81v11.91h-23.81V247.06z"/>
		<path d="M115.32,270.88h107.16v11.91H115.32V270.88z"/>
		<path d="M115.32,294.69h83.34v11.91h-83.34V294.69z"/>
		<path d="M145.08,318.5c-16.41,0-29.77,13.35-29.77,29.77s13.35,29.77,29.77,29.77s29.77-13.35,29.77-29.77
			S161.5,318.5,145.08,318.5z M145.08,366.13c-9.85,0-17.86-8.01-17.86-17.86s8.01-17.86,17.86-17.86s17.86,8.01,17.86,17.86
			S154.93,366.13,145.08,366.13z"/>
	</g>
</g>
<g>
	<circle class="st4" cx="217.57" cy="217.17" r="185.16"/>
	<g>
		<g>
			<path class="st7" d="M286.67,222.3c15.76-8.62,25.64-25.31,25.09-43.27c-1.83-60-41.04-81.43-85.39-85.21
				c-41.9-3.57-78.69,20.37-94.3,55.75c-1.3,2.94-0.55,6.38,1.95,8.4l31.82,25.69c2.71,2.19,6.62,2.04,9.16-0.34l29.1-27.31
				c7.81-7.33,19.98-7.29,27.74,0.09l0.27,0.26c9.4,8.95,7.98,24.23-2.78,31.48c-18.7,12.59-42.68,32.73-42.68,53.66
				c0,24.33,0,24.33,0,24.33h56.57C253.28,247.51,268.33,232.33,286.67,222.3z"/>
		</g>
	</g>
	<path class="st7" d="M243.55,341.42h-55.8c-0.61,0-1.1-0.49-1.1-1.1v-55.8c0-0.61,0.49-1.1,1.1-1.1h55.8c0.61,0,1.1,0.49,1.1,1.1
		v55.8C244.65,340.93,244.16,341.42,243.55,341.42z"/>
</g>
</svg>
