<?xml version="1.0" encoding="utf-8"?>
<!-- Generator: Adobe Illustrator 24.1.1, SVG Export Plug-In . SVG Version: 6.00 Build 0)  -->
<svg version="1.1" id="Layer_1" xmlns="http://www.w3.org/2000/svg" xmlns:xlink="http://www.w3.org/1999/xlink" x="0px" y="0px"
	 viewBox="0 0 700 160" style="enable-background:new 0 0 700 160;" xml:space="preserve">
<style type="text/css">
	.st0{enable-background:new    ;}
	.st1{fill:#0575ce;}
	.st2{fill:#00E19B;}
	.st3{fill:#FE007A;}
	.st4{fill:#FFB600;}
	.st5{fill:#0376CF;}
</style>
<g id="Layer_1_1_">
	<g class="st0">
		<path class="st1" d="M226.46,101.38H219l-6.96-17.35h-27.16l-6.87,17.35h-7.38l23.8-59.68h7.88L226.46,101.38z M187.66,76.99
			l-0.25,0.67h22.13l-0.34-0.75c-1.4-3.41-5.03-12.6-10.9-27.58C194.33,59.95,190.78,69.17,187.66,76.99z"/>
		<path class="st1" d="M292.93,84.11l0.59,9.64c0.28,3.35,1.01,5.9,2.18,7.63h-7.29c-1.23-1.79-1.87-4.44-1.93-7.96l-0.25-6.37
			c-0.17-4.02-1.06-6.89-2.68-8.59c-1.62-1.7-4.27-2.56-7.96-2.56h-19.44v25.48h-7.04V41.7h25.23c6.15,0,11.05,1.42,14.71,4.27
			c3.66,2.85,5.49,6.85,5.49,11.99c0,3.63-0.88,6.69-2.64,9.18c-1.76,2.49-4.15,4.23-7.17,5.24
			C289.74,73.94,292.48,77.86,292.93,84.11z M256.13,69.53h19.03c3.74,0,6.69-0.96,8.84-2.89c2.15-1.93,3.23-4.68,3.23-8.26
			c0-3.41-1.13-5.98-3.39-7.71c-2.26-1.73-5.44-2.6-9.51-2.6h-18.19V69.53z"/>
		<path class="st1" d="M312.88,41.7h47.86v6.37h-20.28v53.31h-7.29V48.07h-20.28V41.7z"/>
		<path class="st1" d="M391.66,101.38h-7.04V41.7h7.04V101.38z"/>
		<path class="st1" d="M459.63,41.7v6.37H427.2V67.1h29.08v6.37H427.2v27.91h-7.04V41.7H459.63z"/>
		<path class="st1" d="M491.4,101.38h-7.04V41.7h7.04V101.38z"/>
		<path class="st1" d="M544.95,102.72c-8.1,0-14.72-2.82-19.86-8.46c-5.14-5.64-7.71-13.21-7.71-22.71c0-9.5,2.57-17.07,7.71-22.71
			c5.14-5.64,11.76-8.46,19.86-8.46c6.42,0,11.9,1.75,16.43,5.24c4.53,3.49,7.51,8.59,8.97,15.3h-7.12
			c-2.51-9.39-8.61-14.08-18.27-14.08c-6.09,0-10.98,2.18-14.67,6.54c-3.69,4.42-5.53,10.48-5.53,18.19s1.84,13.75,5.53,18.1
			c3.69,4.42,8.58,6.62,14.67,6.62c4.58,0,8.66-1.42,12.24-4.27c3.52-2.74,5.67-6.84,6.45-12.32h7.04
			c-0.78,7.43-3.6,13.1-8.46,17.01C557.3,100.71,551.55,102.72,544.95,102.72z"/>
		<path class="st1" d="M603.29,101.38h-7.04V41.7h7.04V101.38z"/>
		<path class="st1" d="M678.63,94.09c-5.25,5.76-12.18,8.63-20.79,8.63c-8.61,0-15.51-2.88-20.7-8.63
			c-5.25-5.64-7.88-13.16-7.88-22.55c0-9.33,2.63-16.87,7.88-22.63c5.2-5.7,12.1-8.55,20.7-8.55c8.6,0,15.53,2.85,20.79,8.55
			c5.2,5.81,7.79,13.36,7.79,22.63C686.43,80.87,683.83,88.39,678.63,94.09z M642.43,89.56c3.86,4.47,9,6.71,15.42,6.71
			c6.42,0,11.57-2.23,15.42-6.71c3.86-4.41,5.78-10.42,5.78-18.02c0-7.6-1.93-13.61-5.78-18.02c-3.86-4.47-9-6.71-15.42-6.71
			c-6.43,0-11.57,2.24-15.42,6.71c-3.86,4.41-5.78,10.42-5.78,18.02C636.64,79.14,638.57,85.15,642.43,89.56z"/>
	</g>
</g>
<g id="Layer_5">
	<path class="st2" d="M15.86,103.39l50.01-29.68c3.86-2.29,8.67-2.29,12.53,0l50.01,29.68c3.04,1.81,3.06,6.2,0.03,8.03
		l-49.97,30.11c-3.9,2.35-8.77,2.35-12.67,0l-49.97-30.11C12.8,109.59,12.82,105.19,15.86,103.39z"/>
</g>
<g id="Layer_4">
	<path class="st3" d="M15.86,82.44l50.01-29.68c3.86-2.29,8.67-2.29,12.53,0l50.01,29.68c3.04,1.81,3.06,6.2,0.03,8.03l-49.97,30.11
		c-3.9,2.35-8.77,2.35-12.67,0L15.83,90.47C12.8,88.64,12.82,84.24,15.86,82.44z"/>
</g>
<g id="Layer_3">
	<path class="st4" d="M15.86,61.48L65.87,31.8c3.86-2.29,8.67-2.29,12.53,0l50.01,29.68c3.04,1.81,3.06,6.2,0.03,8.03L78.47,99.62
		c-3.9,2.35-8.77,2.35-12.67,0L15.83,69.51C12.8,67.68,12.82,63.29,15.86,61.48z"/>
</g>
<g id="Layer_2_1_">
	<path class="st5" d="M15.86,40.1l50.01-29.68c3.86-2.29,8.67-2.29,12.53,0l50.01,29.68c3.04,1.81,3.06,6.2,0.03,8.03L78.47,78.24
		c-3.9,2.35-8.77,2.35-12.67,0L15.83,48.13C12.8,46.3,12.82,41.9,15.86,40.1z"/>
</g>
</svg>
